<svg width="135" height="40" viewBox="0 0 135 40" xmlns="http://www.w3.org/2000/svg"><title>app_store_en</title><desc>Created with Sketch.</desc><g fill="none"><rect width="135" height="40" rx="5" fill="#000"/><g fill="#fff"><g><path d="M32.269 20.301c.022-1.696.911-3.263 2.357-4.152-.916-1.308-2.395-2.108-3.991-2.158-1.679-.176-3.307 1.005-4.163 1.005-.872 0-2.19-.987-3.609-.958-1.867.06-3.565 1.096-4.473 2.728-1.934 3.348-.491 8.269 1.361 10.976.927 1.325 2.01 2.806 3.428 2.753 1.387-.058 1.905-.884 3.579-.884 1.659 0 2.145.884 3.591.851 1.488-.024 2.426-1.331 3.321-2.669.666-.944 1.178-1.988 1.518-3.093-1.768-.748-2.917-2.48-2.919-4.399z"/><path d="M29.537 12.211c.812-.974 1.211-2.226 1.115-3.491-1.24.13-2.385.723-3.208 1.66-.812.924-1.224 2.134-1.144 3.361 1.256.013 2.449-.551 3.237-1.53z"/></g><g id="Group"><path d="M49.802 27.14h-4.733l-1.137 3.356h-2.005l4.483-12.418h2.083l4.483 12.418h-2.039l-1.136-3.356zm-4.243-1.549h3.752l-1.85-5.447h-.052l-1.851 5.447zM62.66 25.97c0 2.813-1.506 4.621-3.778 4.621-1.175.061-2.281-.554-2.849-1.584h-.043v4.484h-1.858v-12.049h1.799v1.506h.034c.593-1.024 1.7-1.639 2.883-1.601 2.298 0 3.813 1.816 3.813 4.622zm-1.91 0c0-1.833-.947-3.038-2.393-3.038-1.42 0-2.375 1.23-2.375 3.038 0 1.824.955 3.046 2.375 3.046 1.445 0 2.393-1.196 2.393-3.046zM72.625 25.97c0 2.813-1.506 4.621-3.778 4.621-1.175.061-2.281-.554-2.849-1.584h-.043v4.484h-1.858v-12.049h1.799v1.506h.034c.593-1.024 1.7-1.639 2.883-1.601 2.298 0 3.813 1.816 3.813 4.622zm-1.91 0c0-1.833-.947-3.038-2.393-3.038-1.42 0-2.375 1.23-2.375 3.038 0 1.824.955 3.046 2.375 3.046 1.445 0 2.393-1.196 2.393-3.046z" id="Shape" fill-rule="nonzero"/><path d="M79.21 27.036c.138 1.231 1.334 2.04 2.969 2.04 1.566 0 2.693-.809 2.693-1.919 0-.964-.68-1.541-2.289-1.937l-1.609-.388c-2.28-.551-3.339-1.617-3.339-3.348 0-2.143 1.867-3.614 4.519-3.614 2.624 0 4.423 1.472 4.483 3.614h-1.876c-.112-1.239-1.137-1.987-2.634-1.987-1.497 0-2.521.757-2.521 1.858 0 .878.654 1.395 2.255 1.79l1.368.336c2.548.603 3.606 1.626 3.606 3.442 0 2.323-1.851 3.778-4.794 3.778-2.754 0-4.613-1.421-4.733-3.667h1.902zM90.846 19.3v2.143h1.722v1.472h-1.722v4.991c0 .775.345 1.137 1.102 1.137.204-.004.408-.018.611-.043v1.463c-.34.064-.686.092-1.032.086-1.833 0-2.548-.688-2.548-2.444v-5.189h-1.316v-1.472h1.316v-2.143h1.867z" id="Path"/><path d="M93.565 25.97c0-2.849 1.678-4.639 4.294-4.639 2.625 0 4.295 1.79 4.295 4.639 0 2.856-1.661 4.639-4.295 4.639-2.633 0-4.294-1.782-4.294-4.639zm6.695 0c0-1.954-.896-3.107-2.401-3.107-1.506 0-2.4 1.162-2.4 3.107 0 1.962.895 3.106 2.4 3.106 1.506 0 2.401-1.145 2.401-3.106z" id="Shape" fill-rule="nonzero"/><path d="M103.686 21.442h1.772v1.541h.043c.247-.992 1.156-1.675 2.178-1.636.214-.001.428.023.637.069v1.738c-.27-.083-.552-.121-.835-.112-.546-.022-1.075.196-1.447.596-.372.4-.551.944-.489 1.487v5.37h-1.858v-9.054z" id="Path"/><path d="M116.884 27.837c-.25 1.644-1.851 2.771-3.898 2.771-2.634 0-4.269-1.765-4.269-4.596 0-2.84 1.644-4.682 4.19-4.682 2.505 0 4.08 1.721 4.08 4.466v.637h-6.395v.112c-.06.674.173 1.341.639 1.832.466.491 1.12.757 1.797.733.902.084 1.752-.433 2.091-1.273h1.765zm-6.282-2.702h4.526c.034-.606-.187-1.198-.608-1.634-.422-.436-1.006-.677-1.612-.664-.611-.004-1.199.237-1.632.669-.433.431-.676 1.018-.674 1.629z" id="Shape" fill-rule="nonzero"/></g></g><g fill="#fff"><path d="M45.326 8.731c.789-.057 1.562.244 2.106.818.544.574.802 1.362.702 2.147 0 1.906-1.03 3.002-2.808 3.002h-2.155v-5.967h2.155zm-1.229 5.123h1.125c.564.034 1.113-.188 1.495-.605.382-.416.556-.982.473-1.541.076-.556-.1-1.118-.481-1.531-.381-.413-.926-.634-1.487-.603h-1.125v4.28zM49.181 12.444c-.077-.807.31-1.588.999-2.016.689-.428 1.561-.428 2.25 0 .689.428 1.076 1.209.999 2.016.079.808-.308 1.591-.998 2.019-.69.428-1.562.428-2.252 0-.69-.428-1.076-1.211-.998-2.019zm3.333 0c0-.976-.438-1.547-1.208-1.547-.772 0-1.207.571-1.207 1.547 0 .984.435 1.55 1.207 1.55.77 0 1.208-.57 1.208-1.55z" id="Shape" fill-rule="nonzero"/><path id="Path" d="M59.073 14.698h-.922l-.931-3.316h-.07l-.927 3.316h-.913l-1.241-4.503h.901l.807 3.436h.066l.926-3.436h.853l.926 3.436h.07l.803-3.436h.889zM61.354 10.195h.855v.715h.066c.231-.527.771-.849 1.344-.802.444-.033.879.137 1.182.463.303.326.442.772.377 1.212v2.915h-.889v-2.692c0-.724-.314-1.084-.972-1.084-.301-.014-.593.104-.8.323-.207.219-.307.518-.275.818v2.634h-.889v-4.503zM66.594 8.437h.889v6.261h-.889z"/><path d="M68.718 12.444c-.077-.807.31-1.588.999-2.016.689-.428 1.561-.428 2.25 0 .689.428 1.076 1.209.999 2.016.079.808-.308 1.591-.998 2.019-.69.428-1.563.428-2.252 0-.69-.428-1.076-1.211-.998-2.019zm3.333 0c0-.976-.438-1.547-1.208-1.547-.772 0-1.207.571-1.207 1.547 0 .984.435 1.55 1.207 1.55.77 0 1.208-.57 1.208-1.55zM73.901 13.424c0-.811.604-1.278 1.675-1.344l1.22-.07v-.389c0-.476-.314-.744-.922-.744-.496 0-.84.182-.938.5h-.86c.091-.773.818-1.27 1.84-1.27 1.129 0 1.766.562 1.766 1.513v3.077h-.855v-.633h-.07c-.291.462-.807.732-1.353.707-.382.04-.764-.084-1.049-.341-.286-.257-.45-.623-.451-1.007zm2.895-.385v-.376l-1.1.07c-.62.042-.901.252-.901.649 0 .405.352.641.835.641.286.029.572-.059.792-.245.22-.186.355-.452.374-.739zM78.848 12.444c0-1.423.731-2.324 1.869-2.324.574-.026 1.113.281 1.381.79h.066v-2.473h.889v6.261h-.852v-.711h-.07c-.289.504-.833.807-1.414.786-1.146 0-1.869-.901-1.869-2.328zm.918 0c0 .955.45 1.53 1.203 1.53.749 0 1.212-.583 1.212-1.526 0-.938-.468-1.53-1.212-1.53-.748 0-1.203.579-1.203 1.526zM86.73 12.444c-.077-.807.31-1.588.999-2.016.689-.428 1.561-.428 2.25 0 .689.428 1.076 1.209.999 2.016.079.808-.308 1.591-.998 2.019-.69.428-1.562.428-2.252 0-.69-.428-1.076-1.211-.998-2.019zm3.333 0c0-.976-.438-1.547-1.208-1.547-.772 0-1.207.571-1.207 1.547 0 .984.435 1.55 1.207 1.55.77 0 1.208-.57 1.208-1.55z" id="Shape" fill-rule="nonzero"/><path d="M92.169 10.195h.855v.715h.066c.231-.527.771-.849 1.344-.802.444-.033.879.137 1.182.463.303.326.442.772.377 1.212v2.915h-.889v-2.692c0-.724-.314-1.084-.972-1.084-.301-.014-.593.104-.8.323-.207.219-.307.518-.275.818v2.634h-.889v-4.503zM101.015 9.074v1.142h.976v.749h-.976v2.315c0 .472.194.678.637.678l.339-.021v.74c-.16.029-.321.044-.483.045-.988 0-1.382-.348-1.382-1.216v-2.543h-.715v-.749h.715v-1.142h.89zM103.205 8.437h.881v2.481h.07c.242-.531.791-.854 1.373-.807.441-.024.87.15 1.17.475.3.325.439.766.381 1.204v2.907h-.89v-2.688c0-.719-.335-1.084-.963-1.084-.309-.025-.614.087-.832.307-.219.22-.329.525-.301.834v2.63h-.889v-6.261z"/><path d="M112.261 13.482c-.249.849-1.071 1.398-1.951 1.303-.6.016-1.177-.233-1.578-.681-.401-.448-.584-1.049-.502-1.644-.08-.597.103-1.199.501-1.65.398-.451.973-.708 1.575-.703 1.253 0 2.009.856 2.009 2.27v.31h-3.18v.05c-.028.334.086.665.314.91.228.246.55.383.885.38.435.052.858-.163 1.071-.546h.855zm-3.126-1.451h2.274c.023-.306-.085-.607-.296-.829-.211-.222-.506-.345-.813-.338-.311-.004-.609.118-.829.337-.22.22-.341.519-.337.829z" fill-rule="nonzero"/></g></g></svg>