<svg  viewBox="0 0 350 1334" fill="none" xmlns="http://www.w3.org/2000/svg">
<circle r="21.6839" transform="matrix(0 1 1 0 66.0001 464)" fill="#333333" fill-opacity="0.1"/>
<circle r="30" transform="matrix(0 1 1 0 66 464)" stroke="#333333" stroke-opacity="0.1" stroke-width="2"/>
<circle r="21.6839" transform="matrix(0 1 1 0 183 801)" fill="#333333" fill-opacity="0.1"/>
<circle r="30" transform="matrix(0 1 1 0 183 801)" stroke="#333333" stroke-opacity="0.1" stroke-width="2"/>
<circle r="21.6839" transform="matrix(0 1 1 0 75.0001 796)" fill="#333333" fill-opacity="0.1"/>
<circle r="30" transform="matrix(0 1 1 0 75 796)" stroke="#333333" stroke-opacity="0.1" stroke-width="2"/>
<circle r="21.6839" transform="matrix(0 1 1 0 192 1133)" fill="#333333" fill-opacity="0.1"/>
<circle r="30" transform="matrix(0 1 1 0 192 1133)" stroke="#333333" stroke-opacity="0.1" stroke-width="2"/>
<circle r="21.6839" transform="matrix(0 1 1 0 170 70)" fill="#333333" fill-opacity="0.1"/>
<circle r="30" transform="matrix(0 1 1 0 170 70)" stroke="#333333" stroke-opacity="0.1" stroke-width="2"/>
<circle r="21.6839" transform="matrix(0 1 1 0 31.0001 289)" fill="#333333" fill-opacity="0.1"/>
<circle r="30" transform="matrix(0 1 1 0 31 289)" stroke="#333333" stroke-opacity="0.1" stroke-width="2"/>
<circle r="21.6839" transform="matrix(0 1 1 0 148 626)" fill="#333333" fill-opacity="0.1"/>
<circle r="30" transform="matrix(0 1 1 0 148 626)" stroke="#333333" stroke-opacity="0.1" stroke-width="2"/>
<circle r="15.3886" transform="matrix(0 1 1 0 153 1312)" fill="#333333" fill-opacity="0.1"/>
<circle r="21" transform="matrix(0 1 1 0 153 1312)" stroke="#333333" stroke-opacity="0.1" stroke-width="2"/>
<circle r="15.3886" transform="matrix(0 1 1 0 171 522)" fill="#333333" fill-opacity="0.1"/>
<circle r="21" transform="matrix(0 1 1 0 171 522)" stroke="#333333" stroke-opacity="0.1" stroke-width="2"/>
<circle r="15.3886" transform="matrix(0 1 1 0 47.9999 643)" fill="#333333" fill-opacity="0.1"/>
<circle r="21" transform="matrix(0 1 1 0 48 643)" stroke="#333333" stroke-opacity="0.1" stroke-width="2"/>
<path d="M61.5 286.5L163 276" stroke="#333333" stroke-opacity="0.1" stroke-width="2"/>
<path d="M208 205L181 98" stroke="#333333" stroke-opacity="0.1" stroke-width="2"/>
<path d="M87.5 442L189 311.5" stroke="#333333" stroke-opacity="0.1" stroke-width="2"/>
<path d="M63 433L50.5 312.5" stroke="#333333" stroke-opacity="0.1" stroke-width="2"/>
<path d="M173.5 1302L305.5 1199.5" stroke="#333333" stroke-opacity="0.1" stroke-width="2"/>
<path d="M135 598L70.5 495.5" stroke="#333333" stroke-opacity="0.1" stroke-width="2"/>
<path d="M175 832L114 970" stroke="#333333" stroke-opacity="0.1" stroke-width="2"/>
<path d="M132.5 653.5L81.5 767" stroke="#333333" stroke-opacity="0.1" stroke-width="2"/>
<path d="M167.5 543.5L156 595.5" stroke="#333333" stroke-opacity="0.1" stroke-width="2"/>
<path d="M170 647L258.5 695" stroke="#333333" stroke-opacity="0.1" stroke-width="2"/>
<path d="M279.5 878.5L136.5 982" stroke="#333333" stroke-opacity="0.1" stroke-width="2"/>
<rect width="2" height="58.0686" transform="matrix(-0.677757 0.735286 0.735286 0.677757 127.355 1073)" fill="#333333" fill-opacity="0.1"/>
</svg>
