<?xml version="1.0" encoding="UTF-8"?>
<svg width="288px" height="212px" viewBox="0 0 288 212" version="1.1" xmlns="http://www.w3.org/2000/svg" xmlns:xlink="http://www.w3.org/1999/xlink">
    <!-- Generator: Sketch 64 (93537) - https://sketch.com -->
    <title>covid logo</title>
    <desc>Created with Sketch.</desc>
    <g id="Page-1" stroke="none" stroke-width="1" fill="none" fill-rule="evenodd">
        <g id="Start" transform="translate(-44.000000, -237.000000)">
            <g id="covid-logo" transform="translate(44.000000, 237.000000)">
                <text id="COVID-CONTROL" font-family="Raleway-v4020-ExtraBold, Raleway-v4020" font-size="35" font-weight="600" letter-spacing="0.21" fill="#000000">
                    <tspan x="0" y="211">Open COVID Trace</tspan>
                </text>
                <g id="logo" transform="translate(70.000000, 0.000000)" fill="#FF7676">
                    <path d="M126.980449,69.3889689 C126.980449,69.3889689 130.668364,62.33564 136.948218,62.33564 C140.144764,62.33564 143.20986,63.6054511 145.470024,65.8652844 C147.730189,68.1254489 149,71.1908756 149,74.3870911 C149,77.5833067 147.730189,80.6487333 145.470024,82.9088978 C143.20986,85.1690622 140.144764,86.4388733 136.948218,86.4388733 C130.742864,86.4388733 127.048327,79.5759333 127.048327,79.5759333 C125.911291,77.4548356 118.932131,76.5062022 116.968973,76.8346644 C115.005484,77.1634578 112.921802,79.3458111 112.343351,81.6861044 L106.313156,96.3188978 C105.033411,98.3611911 107.018753,104.266558 108.425313,106.072107 C109.832204,107.877656 112.700289,108.383593 114.797547,107.196229 C114.797547,107.196229 115.980607,106.525729 118.741742,106.525729 C120.723442,106.525729 122.67468,107.014118 124.422616,107.948513 C126.170551,108.882578 127.661213,110.233511 128.762489,111.881451 C129.863433,113.529391 130.541218,115.423347 130.73558,117.395776 C130.929611,119.368204 130.634922,121.358182 129.876347,123.189227 C129.117771,125.020271 127.91948,126.636093 126.387429,127.893322 C124.855378,129.150551 123.036916,130.010778 121.092962,130.397184 C119.149009,130.783922 117.140158,130.685251 115.243222,130.10978 C113.346949,129.53464 111.621529,128.500249 110.219936,127.098987 C105.813509,122.692229 108.101156,115.180973 108.101156,115.180973 C108.802118,112.884387 104.57118,107.250862 102.969264,106.091642 C101.367349,104.932753 98.3698,105.031093 96.3278378,106.310838 L81.6927267,112.339047 C79.3547511,112.926107 76.5585178,118.540096 76.2651533,120.814498 C75.9714578,123.0889 77.4766889,125.862949 79.6130178,126.980449 C79.6130178,126.980449 86.6666778,130.668364 86.6666778,136.948218 C86.6666778,140.144764 85.3968667,143.20986 83.1370333,145.470024 C80.8765378,147.730189 77.8114422,149 74.6148956,149 C71.41868,149 68.3535844,147.730189 66.0930889,145.470024 C63.8332556,143.20986 62.5634444,140.144764 62.5634444,136.948218 C62.5634444,130.742864 69.4240667,127.048327 69.4240667,127.048327 C71.5474822,125.911291 72.4961156,118.932131 72.1673222,116.968973 C71.83886,115.005484 69.6561756,112.921802 67.3162133,112.343351 L52.6830889,106.315142 C50.6411267,105.033411 44.73576,107.016436 42.9302111,108.425313 C41.1246622,109.834191 40.2435756,112.864851 40.9756622,115.161107 C40.9756622,115.161107 43.4056867,122.801827 38.9466133,127.2609 C37.54502,128.662493 35.8196,129.696884 33.9233267,130.272024 C32.0264904,130.847496 30.0173744,130.946167 28.0735536,130.559429 C26.1297327,130.173022 24.3112373,129.312796 22.7791531,128.055567 C21.2470358,126.798338 20.0487116,125.182516 19.2902684,123.35114 C18.5318253,121.520427 18.2366729,119.530449 18.4309689,117.55802 C18.6252318,115.585591 19.30295,113.691636 20.4040931,112.043696 C21.5052362,110.395756 22.9958653,109.044822 24.7438009,108.110758 C26.4917033,107.176362 28.4429742,106.687642 30.4249391,106.687642 C33.1157467,106.687642 34.1719911,107.266093 34.1719911,107.266093 C36.2841489,108.427631 41.7534422,104.568862 42.9103444,102.966947 C44.0672467,101.365362 43.9708933,98.3678133 42.69148,96.32552 L36.6609533,81.6927267 C36.0738933,79.3524333 30.4600038,76.5565311 28.1855022,76.2628356 C25.9110338,75.96914 23.1369849,77.4747022 22.0194518,79.6110311 C22.0194518,79.6110311 18.3316356,86.66436 12.0516498,86.66436 C8.855368,86.66436 5.78997444,85.3945489 3.52984311,83.1347156 C1.26972171,80.8745511 0,77.8091244 0,74.6129089 C0,71.4166933 1.26972171,68.3512667 3.52984311,66.0911022 C5.78997444,63.8309378 8.855368,62.5611267 12.0516498,62.5611267 C18.2571356,62.5611267 21.9515409,69.4240667 21.9515409,69.4240667 C23.0887751,71.5451644 30.0677696,72.4937978 32.0310929,72.1653356 C33.9945156,71.8365422 36.0781978,69.6541889 36.6566489,67.3138956 L42.6868444,52.6811022 C43.9665889,50.6388089 41.9812467,44.7334422 40.5746867,42.9278933 C39.1677956,41.1223444 36.2997111,40.6164067 34.2024533,41.8037711 C34.2024533,41.8037711 33.0193271,42.4742711 30.2583902,42.4742711 C28.2764584,42.4742711 26.3251876,41.9858822 24.577252,41.0514867 C22.8293164,40.1174222 21.3386873,38.7664889 20.2375773,37.1185489 C19.1364011,35.4706089 18.4586829,33.5766533 18.26442,31.6042244 C18.070124,29.6316962 18.3652764,27.641884 19.1237196,25.8109058 C19.8821627,23.9796958 21.0804869,22.3639067 22.6126042,21.1066778 C24.1447216,19.8493496 25.9631838,18.9892884 27.9070047,18.60265 C29.8508256,18.2160116 31.8599416,18.3147489 33.7567778,18.8900876 C35.6530511,19.4654593 37.3784711,20.4996518 38.7800644,21.9011458 C43.1864911,26.3076387 40.8988444,33.8190267 40.8988444,33.8190267 C40.1955644,36.1156133 44.42882,41.7491378 46.0307356,42.9083578 C47.6326511,44.0672467 50.6302,43.9689067 52.6721622,42.6891622 L67.3072733,36.6609533 C69.6452489,36.0738933 72.4414822,30.4600038 72.7348467,28.1855022 C73.0285422,25.9110338 71.5233111,23.1369849 69.3866511,22.0194518 C69.3866511,22.0194518 62.3333222,18.3316356 62.3333222,12.0516498 C62.3333222,8.855368 63.6031333,5.78997444 65.8632978,3.52984311 C68.1234622,1.26972502 71.1885578,0 74.3851044,0 C77.58132,0 80.6464156,1.26972502 82.9069111,3.52984311 C85.1667444,5.78997444 86.4365556,8.855368 86.4365556,12.0516498 C86.4365556,18.2571356 79.5759333,21.9515409 79.5759333,21.9515409 C77.4525178,23.0887751 76.5038844,30.0677696 76.8326778,32.0310929 C77.16114,33.9945156 79.3438244,36.0781978 81.6837867,36.6566489 L96.3169111,42.6848578 C98.3588733,43.9665889 104.26424,41.9835644 106.069789,40.5746867 C107.875338,39.1658089 108.756093,36.1351489 108.024338,33.8388933 C108.024338,33.8388933 105.594313,26.1981071 110.053387,21.7389676 C111.45498,20.3375067 113.1804,19.3033142 115.076673,18.7279424 C116.973609,18.1525707 118.98246,18.0538664 120.926413,18.4404718 C122.870367,18.8271433 124.688829,19.6872044 126.22088,20.9445327 C127.752931,22.2017616 128.951222,23.8175507 129.709798,25.6487607 C130.468373,27.4797389 130.763062,29.4695511 130.569031,31.4420793 C130.374669,33.4144089 129.696884,35.3083644 128.59594,36.9563044 C127.494664,38.6042444 126.004002,39.9551778 124.256067,40.8892422 C122.508131,41.8236378 120.556893,42.3123578 118.575193,42.3123578 C115.884253,42.3123578 114.828009,41.7339067 114.828009,41.7339067 C112.715851,40.5723689 107.246558,44.4311378 106.089656,46.0330533 C104.932753,47.6346378 105.029107,50.6321867 106.30852,52.67448 L112.339047,67.3072733 C112.926107,69.6475667 118.540096,72.4434689 120.814498,72.7371644 C123.0889,73.03086 125.862949,71.5252978 126.980449,69.3889689 Z M87.9037089,97.4360667 L98.1297444,87.2100311 L85.4031578,74.4827822 L98.0933222,61.7926178 L87.8672867,51.5662511 L75.1767911,64.2567467 L61.09894,50.1785644 L50.8725733,60.4049311 L64.9507556,74.4827822 L50.8361511,88.5977178 L61.0621867,98.8237533 L75.1767911,84.7091489 L87.9037089,97.4360667 Z" id="Shape"></path>
                </g>
            </g>
        </g>
    </g>
</svg>