<?xml version="1.0" encoding="UTF-8" standalone="no"?>
<!-- Created with Inkscape (http://www.inkscape.org/) -->
<svg
   xmlns:dc="http://purl.org/dc/elements/1.1/"
   xmlns:cc="http://web.resource.org/cc/"
   xmlns:rdf="http://www.w3.org/1999/02/22-rdf-syntax-ns#"
   xmlns:svg="http://www.w3.org/2000/svg"
   xmlns="http://www.w3.org/2000/svg"
   xmlns:sodipodi="http://sodipodi.sourceforge.net/DTD/sodipodi-0.dtd"
   xmlns:inkscape="http://www.inkscape.org/namespaces/inkscape"
   width="335.630850669"
   height="297.946389018" viewBox="0 0 384.00601 340.89001"
   id="svg3006"
   sodipodi:version="0.32"
   inkscape:version="0.45.1"
   version="1.0"
   sodipodi:docbase="C:\Documents and Settings\Sigurd\Skrivebord\BILDER TIL WIKIPEDIA"
   sodipodi:docname="ECDC logo.svg"
   inkscape:output_extension="org.inkscape.output.svg.inkscape">
  <defs
     id="defs3008">
    <clipPath
       id="id4">
      <path
   clip-rule="nonzero"
   d="M 418.861,689.953 L 572.598,689.953 L 572.598,822.047 L 418.861,822.047 L 418.861,689.953 z "
   id="path2778" />

    </clipPath>
  </defs>
  <sodipodi:namedview
     id="base"
     pagecolor="#ffffff"
     bordercolor="#666666"
     borderopacity="1.0"
     gridtolerance="10000"
     guidetolerance="10"
     objecttolerance="10"
     inkscape:pageopacity="0.0"
     inkscape:pageshadow="2"
     inkscape:zoom="1"
     inkscape:cx="375"
     inkscape:cy="120"
     inkscape:document-units="px"
     inkscape:current-layer="layer1"
     inkscape:window-width="1280"
     inkscape:window-height="975"
     inkscape:window-x="-4"
     inkscape:window-y="-4" />
  <metadata
     id="metadata3011">
    <rdf:RDF>
      <cc:Work
         rdf:about="">
        <dc:format>image/svg+xml</dc:format>
        <dc:type
           rdf:resource="http://purl.org/dc/dcmitype/StillImage" />
      </cc:Work>
    </rdf:RDF>
  </metadata>
  <g
     inkscape:label="Layer 1"
     inkscape:groupmode="layer"
     id="layer1"
     transform="translate(-182.99703,-361.91716)">
    <g
       transform="matrix(2.8614526,0,0,-2.8614526,-1037.3157,2705.2305)"
       clip-path="url(#id4)"
       id="g2794">
          <path
   d="M 455.915,718.668 L 481.33,718.668 L 481.33,701.704 L 455.915,701.704 L 455.915,718.668 z "
   id="path2796"
   style="fill:#004e99;fill-rule:nonzero;stroke:none" />

          <path
   d="M 469.02,715.099 L 468.353,715.564 L 467.685,715.099 L 467.921,715.878 L 467.273,716.369 L 468.086,716.385 L 468.353,717.154 L 468.62,716.385 L 469.433,716.369 L 468.785,715.878 L 469.02,715.099 z "
   id="path2798"
   style="fill:#ffe913;fill-rule:nonzero;stroke:none" />

          <path
   d="M 466.034,714.406 L 465.366,714.87 L 464.698,714.406 L 464.934,715.184 L 464.286,715.676 L 465.099,715.692 L 465.366,716.461 L 465.633,715.692 L 466.446,715.676 L 465.798,715.184 L 466.034,714.406 z "
   id="path2800"
   style="fill:#ffe913;fill-rule:nonzero;stroke:none" />

          <path
   d="M 464.168,712.255 L 463.501,712.719 L 462.833,712.255 L 463.068,713.033 L 462.42,713.525 L 463.234,713.541 L 463.501,714.31 L 463.767,713.541 L 464.58,713.525 L 463.932,713.033 L 464.168,712.255 z "
   id="path2802"
   style="fill:#ffe913;fill-rule:nonzero;stroke:none" />

          <path
   d="M 463.302,709.227 L 462.634,709.692 L 461.967,709.227 L 462.202,710.006 L 461.554,710.497 L 462.367,710.513 L 462.634,711.281 L 462.901,710.513 L 463.714,710.497 L 463.066,710.006 L 463.302,709.227 z "
   id="path2804"
   style="fill:#ffe913;fill-rule:nonzero;stroke:none" />

          <path
   d="M 464.229,706.322 L 463.561,706.786 L 462.894,706.322 L 463.129,707.101 L 462.482,707.591 L 463.295,707.608 L 463.561,708.376 L 463.829,707.608 L 464.642,707.591 L 463.994,707.101 L 464.229,706.322 z "
   id="path2806"
   style="fill:#ffe913;fill-rule:nonzero;stroke:none" />

          <path
   d="M 466.319,704.507 L 465.651,704.972 L 464.984,704.507 L 465.219,705.286 L 464.571,705.777 L 465.385,705.793 L 465.651,706.561 L 465.918,705.793 L 466.731,705.777 L 466.083,705.286 L 466.319,704.507 z "
   id="path2808"
   style="fill:#ffe913;fill-rule:nonzero;stroke:none" />

          <path
   d="M 469.163,703.58 L 468.495,704.044 L 467.828,703.58 L 468.064,704.358 L 467.416,704.849 L 468.229,704.865 L 468.496,705.634 L 468.763,704.865 L 469.576,704.849 L 468.928,704.358 L 469.163,703.58 z "
   id="path2810"
   style="fill:#ffe913;fill-rule:nonzero;stroke:none" />

          <path
   d="M 470.734,714.406 L 471.401,714.87 L 472.069,714.406 L 471.833,715.184 L 472.482,715.676 L 471.668,715.692 L 471.401,716.461 L 471.135,715.692 L 470.321,715.676 L 470.969,715.184 L 470.734,714.406 z "
   id="path2812"
   style="fill:#ffe913;fill-rule:nonzero;stroke:none" />

          <path
   d="M 472.599,712.255 L 473.266,712.719 L 473.935,712.255 L 473.699,713.033 L 474.347,713.525 L 473.534,713.541 L 473.266,714.31 L 473,713.541 L 472.187,713.525 L 472.835,713.033 L 472.599,712.255 z "
   id="path2814"
   style="fill:#ffe913;fill-rule:nonzero;stroke:none" />

          <path
   d="M 473.466,709.227 L 474.133,709.692 L 474.801,709.227 L 474.566,710.006 L 475.214,710.497 L 474.4,710.513 L 474.133,711.281 L 473.866,710.513 L 473.053,710.497 L 473.702,710.006 L 473.466,709.227 z "
   id="path2816"
   style="fill:#ffe913;fill-rule:nonzero;stroke:none" />

          <path
   d="M 472.538,706.322 L 473.206,706.786 L 473.873,706.322 L 473.638,707.101 L 474.286,707.591 L 473.473,707.608 L 473.206,708.376 L 472.938,707.608 L 472.125,707.591 L 472.774,707.101 L 472.538,706.322 z "
   id="path2818"
   style="fill:#ffe913;fill-rule:nonzero;stroke:none" />

          <path
   d="M 470.448,704.507 L 471.116,704.972 L 471.783,704.507 L 471.548,705.286 L 472.196,705.777 L 471.382,705.793 L 471.116,706.561 L 470.849,705.793 L 470.036,705.777 L 470.684,705.286 L 470.448,704.507 z "
   id="path2820"
   style="fill:#ffe913;fill-rule:nonzero;stroke:none" />

          <path
   d="M 464.882,756.649 C 464.668,756.716 464.578,756.874 464.353,756.874 C 464.156,756.874 463.981,756.71 463.981,756.513 C 463.981,756.35 464.105,756.271 464.229,756.176 C 464.437,756.012 464.533,755.793 464.803,755.793 C 464.961,755.793 465.029,755.911 465.175,755.951 C 465.276,755.979 465.422,755.956 465.422,756.063 C 465.422,756.373 465.175,756.553 464.882,756.649"
   id="path2822"
   style="fill:#bcd377;fill-rule:nonzero;stroke:none" />

          <path
   d="M 442.191,785.227 C 444.474,784.864 446.753,789.321 445.768,789.914 C 443.837,791.073 443.938,788.92 441.333,788.96 C 440.793,788.622 441.293,787.511 441.449,787.15 C 441.02,786.709 440.31,786.61 439.987,786.058 C 439.388,785.033 441.668,784.054 442.191,785.227"
   id="path2824"
   style="fill:#bcd377;fill-rule:nonzero;stroke:none" />

          <path
   d="M 447.04,794.782 C 446.75,795.409 444.293,792.56 445.27,792.742 C 446.244,792.923 447.331,794.152 447.04,794.782"
   id="path2826"
   style="fill:#bcd377;fill-rule:nonzero;stroke:none" />

          <path
   d="M 446.045,790.559 C 446.572,790.191 446.283,789.442 446.492,788.935 C 446.549,788.795 446.695,788.502 446.937,788.591 C 447.469,787.866 448.103,787.542 447.642,786.634 C 446.103,787.171 445.157,786.421 446.31,785.306 C 445.962,785.201 444.579,784.766 444.722,784.302 C 444.981,784.207 447.035,784.037 446.482,783.178 C 445.53,783.336 444.432,782.806 443.778,782.096 C 443.073,781.331 443.978,781.802 444.28,781.995 C 445.41,782.72 444.88,781.019 446.846,782.305 C 447.049,781.538 451.121,782.583 451.447,783.013 C 451.74,783.399 451.852,784.152 452.086,784.61 C 451.918,785.484 450.784,785.791 450.807,786.379 C 450.84,787.212 450.455,788.041 450.119,788.763 C 449.147,790.852 450.929,793.367 449.396,793.152 C 448.682,793.493 450.485,794.979 450.777,795.289 C 450.881,795.781 448.872,794.655 448.414,794.599 C 447.064,794.433 445.243,791.416 446.045,790.559"
   id="path2828"
   style="fill:#bcd377;fill-rule:nonzero;stroke:none" />

          <path
   d="M 474.886,762.282 L 474.447,761.981 L 474.203,761.397 C 474.306,761.2 475.33,759.337 475.57,760.072 L 475.949,759.947 L 476.245,759.52 L 476.658,759.989 L 476.989,759.658 L 477.142,759.052 L 477.357,759.864 L 476.599,761.19 C 478.369,760.521 476.935,762.403 474.886,762.282"
   id="path2830"
   style="fill:#bcd377;fill-rule:nonzero;stroke:none" />

          <path
   d="M 482.373,758.625 C 482.247,758.645 481.926,758.32 481.789,758.289 C 481.653,758.259 481.659,758.445 481.516,758.516 C 481.373,758.586 478.908,758.222 478.908,758.222 C 478.704,758.141 478.365,757.663 478.606,757.662 C 478.606,757.662 479.759,757.8 479.99,757.823 C 480.221,757.847 480.108,757.607 480.319,757.618 C 480.531,757.629 482.344,758.149 482.463,758.331 C 482.581,758.512 482.5,758.604 482.373,758.625"
   id="path2832"
   style="fill:#bcd377;fill-rule:nonzero;stroke:none" />

          <path
   d="M 491.563,761.555 L 490.932,761.112 L 491.233,760.799 C 492.124,760.679 492.833,761.572 493.411,762.123 L 493.078,762.378 L 493.652,763.429 C 493.167,763.109 490.937,762.076 491.563,761.555"
   id="path2834"
   style="fill:#bcd377;fill-rule:nonzero;stroke:none" />

          <path
   d="M 457.763,767.957 C 457.509,768.078 457.165,767.774 457.006,767.611 C 456.534,767.13 457.091,766.45 457.157,765.952 L 457.735,765.887 C 458.584,766.825 458.531,767.63 458.078,768.654 L 457.763,767.957 z "
   id="path2836"
   style="fill:#bcd377;fill-rule:nonzero;stroke:none" />

          <path
   d="M 457.536,765.372 L 456.533,764.725 L 456.444,765.254 C 455.827,764.942 456.414,763.864 456.447,763.412 C 456.482,762.928 456.127,762.301 456.187,761.897 C 456.194,761.853 456.226,761.57 456.357,761.635 L 456.94,761.397 C 458.295,761.836 458.789,764.908 457.536,765.372"
   id="path2838"
   style="fill:#bcd377;fill-rule:nonzero;stroke:none" />

          <path
   d="M 447.982,763.02 L 447.951,762.829 C 448.47,762.709 448.682,762.245 449.296,762.362 C 450.878,763.86 448.858,763.393 447.982,763.02"
   id="path2840"
   style="fill:#bcd377;fill-rule:nonzero;stroke:none" />

          <path
   d="M 480.905,765.399 C 480.711,765.442 480.607,765.396 480.51,765.351 C 480.412,765.305 479.96,765.007 480.15,764.914 C 480.34,764.821 480.588,764.81 480.725,764.713 C 480.862,764.617 481.277,764.756 481.189,764.933 C 481.101,765.109 481.098,765.356 480.905,765.399"
   id="path2842"
   style="fill:#bcd377;fill-rule:nonzero;stroke:none" />

          <path
   d="M 484.554,761.378 C 483.941,761.301 483.911,760.277 484.275,760.156 C 484.566,760.058 485.27,761.468 484.554,761.378"
   id="path2844"
   style="fill:#bcd377;fill-rule:nonzero;stroke:none" />

          <path
   d="M 480.919,763.594 C 480.919,763.594 481.328,763.483 481.477,763.627 C 481.625,763.77 481.411,764.31 481.333,764.41 C 481.254,764.51 480.595,764.142 480.385,764.034 C 480.175,763.926 480.745,762.856 480.919,763.594"
   id="path2846"
   style="fill:#bcd377;fill-rule:nonzero;stroke:none" />

          <path
   d="M 466.904,791.164 C 467.276,791.451 467.486,792.476 467.563,792.908 C 466.412,792.291 466.491,790.845 466.904,791.164"
   id="path2848"
   style="fill:#bcd377;fill-rule:nonzero;stroke:none" />

          <path
   d="M 507.67,777.634 C 507.618,778.04 507.292,778.923 507.45,779.337 C 507.609,779.749 506.07,779.47 505.517,779.644 C 504.966,779.819 502.805,780.402 502.525,780.991 C 502.246,781.578 501.848,782.143 501.233,782.113 C 500.618,782.083 500.364,782.469 500.31,782.963 C 500.257,783.456 500.844,785.613 501.019,785.914 C 501.195,786.213 501.102,786.112 501.37,786.512 C 501.636,786.912 501.654,787.669 501.654,787.669 C 501.654,787.669 501.329,790.503 500.477,791.676 C 499.63,792.841 499.064,794.06 500.017,794.653 C 500.966,795.243 501.445,797.079 501.429,798.072 C 501.413,799.059 498.81,802.294 498.335,803.137 C 497.863,803.977 496.2,807.43 495.789,807.754 C 495.381,808.079 489.794,812.647 486.848,813.11 C 485.858,813.266 484.923,813.467 484.509,812.908 C 484.029,812.26 482.967,812.281 482.59,811.953 C 482.213,811.625 482.1,811.059 482.02,810.735 C 481.941,810.412 482.726,810.344 482.275,809.911 C 481.823,809.477 481.708,809.264 481.283,809.841 C 480.858,810.415 480.439,810.951 480.439,810.951 C 480.439,810.951 479.746,811.346 479.163,811.245 C 478.578,811.144 479.122,810.088 479.335,809.759 C 479.55,809.429 481.089,808.2 480.417,808.093 C 479.744,807.986 478.763,807.394 479.097,806.648 C 479.432,805.898 480,805.89 479.16,805.317 C 478.674,804.985 477.433,805.736 477.374,805.256 C 477.275,804.452 479.448,804.257 478.262,803.664 C 477.836,803.45 477.209,803.624 476.568,803.78 C 476.547,804.149 476.449,804.537 476.21,804.974 C 475.635,806.03 474.219,805.994 473.555,806.857 C 473.237,807.271 476.415,806.891 477.112,807.146 C 477.94,807.448 478.269,807.341 478.233,808.152 C 478.156,809.873 472.343,809.602 471.216,809.733 C 471.184,809.721 471.15,809.707 471.117,809.693 C 470.91,809.724 470.722,809.769 470.62,809.858 C 474.208,811.226 466.296,811.829 463.451,806.933 C 463.857,806.026 460.91,801.21 460.112,800.234 C 459.134,799.037 457.249,798.725 456.331,797.461 C 455.496,796.309 456.65,794.345 456.392,793.011 C 458.526,791.037 460.57,793.982 460.523,794.318 C 460.715,793.505 461.039,792.586 461.493,791.905 C 461.663,791.65 462.362,790.603 462.136,790.306 C 461.814,789.881 460.939,789.897 460.855,789.391 C 460.805,789.093 461.469,787.738 461.794,787.759 C 462.12,787.78 461.78,789.925 462.116,789.859 C 462.451,789.791 462.306,788.91 462.47,788.765 C 462.633,788.62 463.596,789.335 464.568,790.11 C 466.436,791.599 464.939,791.539 465.667,793.484 C 466.909,794.426 468.347,796.185 465.764,796.462 C 465.191,797.151 465.943,800.429 467.103,800.46 C 468.353,801.441 467.5,802.364 468.213,803.372 C 468.736,804.111 470.305,804.211 470.307,803.149 C 469.316,802.628 468.804,801.162 468.04,800.343 C 467.582,799.852 469.019,795.992 470.263,795.892 C 470.931,795.838 471.126,796.344 471.542,796.686 C 472.219,797.244 473.138,797.459 473.879,797.919 C 474.405,797.945 474.607,797.725 474.647,797.693 C 475.085,797.337 474.48,796.729 473.889,796.11 C 473.098,795.776 471.833,795.863 470.993,795.333 C 470.85,795.242 469.076,792.964 470.296,793.398 C 470.491,793.467 470.95,793.978 471.086,794.16 L 471.827,793.757 L 471.787,792.101 L 471.217,792.193 C 469.513,793.686 469.572,791.857 469.564,789.958 C 469.558,788.417 468.806,786.908 468.435,786.937 C 464.533,787.253 465.926,785.809 463.393,785.537 C 463.465,785.601 463.415,785.846 463.352,785.949 C 463.167,786.252 462.576,786.156 462.196,786 L 460.512,785.408 C 460.681,785.563 461.224,786.839 460.814,786.974 C 461.095,787.827 460.202,789.063 460.312,790.478 C 462.631,793.27 456.14,790.828 458.536,788.115 C 458.496,787.386 458.514,785.954 458.637,785.238 L 458.005,784.838 C 456.489,785.463 455.305,784.877 454.92,783.331 C 455.095,783.683 454.36,784.005 453.989,783.821 C 452.997,783.324 449.972,780.405 448.301,779.275 L 447.491,779.512 C 447.413,779.767 447.107,780.499 446.817,779.86 C 446.67,779.536 446.654,778.758 446.639,778.387 C 445.997,778.355 445.173,778.224 445.08,778.967 C 444.52,779.208 443.792,779.144 443.23,778.802 C 443.036,778.684 443.06,778.479 443.125,778.323 C 443.717,776.913 445.086,775.932 445.335,774.247 C 445.497,773.155 445.195,768.885 443.171,770.085 C 441.848,769.5 437.377,772.592 435.929,771.369 C 434.667,771.423 434.653,771.131 434.886,770.148 C 435.391,768.02 430.665,764.038 432.007,763.408 C 432.243,762.3 433.223,762.306 432.423,761.375 C 435.262,759.792 434.299,758.345 435.418,758.118 L 437.052,758.7 L 437.307,759.034 C 437.742,758.962 439.729,758.492 440.076,758.769 L 440.589,758.609 L 441.079,758.814 C 441.349,759.141 441.608,759.533 441.983,759.753 L 442.949,759.704 C 443.46,761.431 444.624,761.152 444.863,761.82 C 443.63,766.2 451.835,765.801 450.047,767.794 C 449.447,768.463 451.022,769.347 451.597,769.331 C 452.6,769.304 453.345,768.32 454.404,768.547 C 455.289,768.737 455.812,769.572 456.668,769.793 C 457.744,771.471 459.297,770.465 459.392,768.956 C 460.185,768.044 462.157,765.266 463.621,765.669 C 464.178,765.273 464.12,764.612 465.024,764.8 L 465.309,764.156 L 465.815,763.878 L 466.243,764.011 L 467.11,761.909 L 466.762,761.577 L 466.639,760.959 C 466.512,760.963 462.291,760.229 462.098,760.169 L 461.883,759.668 L 462.316,759.283 L 462.814,759.314 C 463.555,758.617 464.65,758.129 465.689,758.043 L 466.104,758.561 C 465.945,759.245 466.036,760.101 466.497,760.684 L 467.373,760.658 L 468.028,762.135 L 468.551,762.336 L 468.273,763.202 L 467.526,763.5 L 468.175,764.843 C 468.724,764.888 469.524,764.371 469.84,763.989 L 470.087,764.31 L 470,764.841 C 469.47,765.173 467.027,765.74 467.072,766.324 C 467.165,767.536 464.025,768.863 463.116,769.728 C 461.481,771.286 462.46,771.709 461.941,772.485 C 462.285,772.756 463.084,773.284 463.505,773.038 L 463.748,771.701 C 464.182,771.575 464.179,772.393 464.169,772.633 L 464.678,772.645 C 465.821,768.684 467.688,769.554 470.736,767.706 C 470.624,761.929 474.02,763.125 478.321,761.92 L 478.935,762.732 C 478.31,763.649 477.825,763.828 476.74,763.96 C 476.765,764.811 476.308,765.086 475.65,765.448 C 475.627,765.494 475.601,765.55 475.565,765.624 C 475.219,766.325 476.417,766.596 476.874,766.814 C 477.505,767.117 479.446,768.242 479.979,767.441 C 481.508,767.379 481.94,768.772 483.316,769.138 C 483.753,768.968 483.589,768.606 483.391,768.324 C 482.779,767.448 479.024,767.384 480.209,765.777 C 481.434,765.293 481.46,765.48 481.657,763.8 C 482.028,763.331 483.546,761.631 484.224,761.707 C 485.099,761.804 487.309,760.919 487.588,762.178 C 487.668,762.537 487.303,762.528 487.632,763.169 C 487.961,763.81 490.371,762.437 491.119,763.099 C 491.901,763.79 492.849,764.638 493.795,765.094 C 494.074,765.229 495.154,765.464 495.013,764.81 C 495.12,764.549 495.46,764.596 495.662,764.649 C 496.509,764.874 497.015,767.088 497.52,767.206 C 498.423,767.416 502.737,769.884 502.899,770.635 C 503.721,770.731 504.72,770.809 505.093,771.618 L 503.993,772.082 C 503.719,772.96 503.55,773.204 502.725,773.688 C 502.777,774.12 502.535,774.527 502.142,774.872 L 502.552,775.116 C 502.552,775.116 503.356,774.549 504.001,774.584 C 504.644,774.617 505.92,777.253 506.395,776.867 C 506.873,776.48 506.895,776.172 507.467,775.892 C 508.04,775.611 507.723,777.228 507.67,777.634"
   id="path2850"
   style="fill:#bcd377;fill-rule:nonzero;stroke:none" />

          <path
   d="M 443.71,805.62 C 443.49,805.155 443.548,804.53 444.014,804.037 C 444.481,803.542 445.469,803.19 446.1,803.548 C 446.729,803.905 447.515,803.794 447.956,804.033 C 448.395,804.271 449.515,804.819 449.294,805.645 C 449.074,806.468 449.152,806.937 448.72,807.234 C 448.288,807.531 448.17,807.185 447.591,807.215 C 447.012,807.245 446.719,807.95 446.28,807.691 C 445.841,807.431 445.354,806.861 445.38,807.258 C 445.406,807.655 445.599,807.77 445.449,808.3 C 445.299,808.828 444.846,808.65 444.412,808.472 C 443.977,808.294 443.277,808.105 443.572,807.795 C 443.867,807.485 444.316,807.457 444.301,807.241 C 444.286,807.025 443.066,807.028 443.176,806.709 C 443.286,806.389 443.929,806.083 443.71,805.62"
   id="path2852"
   style="fill:#bcd377;fill-rule:nonzero;stroke:none" />

          <path
   d="M 491.343,767.974 C 492.79,774.521 493.437,782.734 492.837,786.928 C 492.757,787.49 492.664,788.038 492.567,788.583 C 498.429,788.53 503.276,788.049 506.858,787.119 C 507.563,782.349 507.451,776.396 506.696,770.969 C 503.186,769.905 498.137,768.954 491.343,767.974 M 471.282,765.46 C 470.716,771.262 469.787,780.35 468.899,787.133 C 476.833,788.031 484.026,788.522 490.22,788.58 C 491.63,781.125 491.095,773.982 490.359,767.833 C 485.052,767.084 478.724,766.314 471.282,765.46 M 447.573,763.232 C 445.992,769.411 444.781,776.113 444.591,782.649 C 451.696,784.529 459.504,785.97 464.714,786.631 C 465.326,786.709 465.931,786.783 466.535,786.856 C 467.677,779.652 469.441,770.946 470.614,765.383 C 464.878,764.726 455.864,763.709 447.573,763.232 M 434.127,763.171 C 433.556,764.59 433.107,765.945 432.859,767.15 C 432.092,770.874 431.697,774.56 431.633,778.061 C 434.263,779.456 437.985,780.78 442.101,781.962 C 442.405,775.938 443.698,769.459 445.817,763.139 C 441.41,762.925 437.307,762.889 434.127,763.171 M 445.146,792.2 C 445.779,796.175 446.878,799.678 448.138,802.676 C 453.826,804.748 459.518,805.765 464.159,806.448 C 464.563,801.753 465.209,796.019 466.102,789.725 C 457.195,788.523 450.092,786.951 444.571,785.244 C 444.605,787.608 444.785,789.938 445.146,792.2 M 482.218,807.482 C 485.649,803.107 487.731,798.127 489.355,792.32 C 489.45,791.979 489.526,791.64 489.613,791.301 C 484.337,791.383 477.727,791.123 469.675,790.179 C 469.276,790.132 468.892,790.082 468.5,790.034 C 468.461,790.301 468.422,790.563 468.384,790.817 C 467.422,797.179 466.808,801.828 465.85,806.686 C 472.567,807.59 477.89,807.744 482.218,807.482 M 508.156,771.45 C 509.126,776.51 509.431,782.151 509.015,786.449 C 510.394,785.934 511.501,785.324 512.304,784.616 C 512.193,785.874 511.108,787.149 508.777,788.28 C 508.753,788.431 508.728,788.584 508.701,788.729 C 506.699,799.513 495.453,809.45 489.523,811.731 C 494.745,807.847 500.307,803.812 505.32,792.852 C 505.794,791.818 506.175,790.583 506.477,789.21 C 506.188,789.307 505.889,789.404 505.576,789.497 C 504.356,789.864 499.965,790.94 492.017,791.238 C 490.393,798.089 487.492,803.369 484.314,807.316 C 490.206,806.739 494.102,805.386 497.271,804.321 C 493.827,807.205 489.33,809.067 482.366,809.543 C 477.523,814.641 472.523,816.891 470.702,817.063 C 474.708,814.786 477.847,812.33 480.365,809.641 C 476.265,809.76 471.37,809.446 465.446,808.638 C 464.962,810.892 464.391,813.239 463.659,815.867 C 463.649,814.069 463.762,811.531 463.997,808.435 C 457.933,807.558 453.192,806.56 449.288,805.193 C 452.409,811.515 455.929,814.961 455.929,814.961 C 452.758,812.47 449.875,808.684 447.573,804.547 C 442.786,802.608 439.299,799.975 436.032,796.09 C 439.201,798.603 442.683,800.484 446.216,801.932 C 443.991,797.321 442.524,792.529 442.198,788.764 C 442.076,787.356 442.025,785.9 442.033,784.412 C 437.228,782.744 433.826,780.991 431.624,779.361 C 431.645,783.304 432.091,786.979 432.906,790.162 C 431.775,788.477 430.504,783.448 430.142,778.112 C 429.327,777.318 428.806,776.569 428.563,775.897 C 428.952,776.316 429.471,776.733 430.087,777.145 C 429.978,774.787 430.055,772.405 430.412,770.257 C 430.815,767.834 431.42,765.55 432.185,763.403 C 431.437,763.52 430.758,763.659 430.181,763.83 C 430.581,763.303 431.437,762.875 432.52,762.518 C 434.909,756.295 438.659,751.28 442.807,747.562 C 442.807,747.562 437.598,755.202 434.638,761.954 C 435.963,761.661 437.387,761.427 438.654,761.226 C 439.583,761.079 441.918,760.74 446.67,760.724 C 448.075,756.946 449.765,753.25 451.731,749.78 C 450.57,753.027 449.344,756.745 448.24,760.732 C 453.288,760.787 460.66,761.192 471.251,762.397 C 471.605,760.755 471.823,759.773 471.823,759.773 C 471.823,759.773 471.732,760.77 471.574,762.433 C 472.43,762.531 473.3,762.633 474.198,762.742 C 480.769,763.538 485.929,764.29 490.001,764.971 C 489.878,764.015 489.756,763.084 489.644,762.191 C 489.989,763.048 490.313,764.022 490.613,765.074 C 500.051,766.68 503.373,767.87 504.717,768.252 C 505.3,768.418 505.843,768.6 506.353,768.793 C 505.829,765.823 505.108,763.094 504.218,760.922 C 505.711,762.817 506.881,765.874 507.712,769.371 C 510.644,770.767 511.961,772.475 511.73,773.286 C 510.925,772.625 509.739,772.019 508.156,771.45"
   id="path2854"
   style="fill:#004689;fill-rule:nonzero;stroke:none" />

          <path
   d="M 489.33,718.101 L 487.505,718.101 L 487.505,716.8 L 489.267,716.8 L 489.267,716.244 L 487.505,716.244 L 487.505,714.904 L 489.387,714.904 L 489.387,714.348 L 486.885,714.348 L 486.885,718.657 L 489.33,718.657 L 489.33,718.101 z "
   id="path2856"
   style="fill:#004689;fill-rule:nonzero;stroke:none" />

          <path
   d="M 493.766,716.042 C 493.766,714.986 493.134,714.291 491.851,714.291 C 490.941,714.291 490.057,714.804 490.057,715.978 L 490.057,718.657 L 490.676,718.657 L 490.676,716.111 C 490.676,715.624 490.739,715.422 490.935,715.226 C 491.181,714.98 491.491,714.86 491.864,714.86 C 492.338,714.86 492.679,715.012 492.875,715.207 C 493.096,715.429 493.147,715.745 493.147,716.149 L 493.147,718.657 L 493.766,718.657 L 493.766,716.042 z "
   id="path2858"
   style="fill:#004689;fill-rule:nonzero;stroke:none" />

          <path
   d="M 495.377,716.775 L 495.776,716.775 C 496.439,716.775 496.628,717.116 496.622,717.476 C 496.615,717.88 496.375,718.127 495.776,718.127 L 495.377,718.127 L 495.377,716.775 z M 495.845,718.657 C 496.717,718.657 497.26,718.196 497.26,717.451 C 497.26,716.952 497.001,716.579 496.54,716.395 C 496.931,716.137 497.172,715.738 497.5,715.201 C 497.684,714.904 497.791,714.759 498.088,714.348 L 497.348,714.348 L 496.78,715.233 C 496.211,716.118 495.952,716.218 495.636,716.218 L 495.377,716.218 L 495.377,714.348 L 494.758,714.348 L 494.758,718.657 L 495.845,718.657 z "
   id="path2860"
   style="fill:#004689;fill-rule:nonzero;stroke:none" />

          <path
   d="M 500.546,714.86 C 501.512,714.86 502.226,715.561 502.226,716.503 C 502.226,717.451 501.512,718.146 500.546,718.146 C 499.586,718.146 498.871,717.451 498.871,716.503 C 498.871,715.561 499.586,714.86 500.546,714.86 M 500.546,718.714 C 501.967,718.714 502.865,717.703 502.865,716.503 C 502.865,715.34 501.993,714.291 500.534,714.291 C 499.125,714.291 498.233,715.334 498.233,716.503 C 498.233,717.697 499.15,718.714 500.546,718.714"
   id="path2862"
   style="fill:#004689;fill-rule:nonzero;stroke:none" />

          <path
   d="M 504.305,716.768 L 505.007,716.768 C 505.468,716.768 505.765,717.015 505.765,717.444 C 505.765,717.761 505.594,718.101 505.032,718.101 L 504.305,718.101 L 504.305,716.768 z M 505.032,718.657 C 505.973,718.657 506.403,718.101 506.403,717.419 C 506.403,716.743 505.948,716.212 504.95,716.212 L 504.305,716.212 L 504.305,714.348 L 503.686,714.348 L 503.686,718.657 L 505.032,718.657 z "
   id="path2864"
   style="fill:#004689;fill-rule:nonzero;stroke:none" />

          <path
   d="M 509.436,718.101 L 507.61,718.101 L 507.61,716.8 L 509.373,716.8 L 509.373,716.244 L 507.61,716.244 L 507.61,714.904 L 509.493,714.904 L 509.493,714.348 L 506.991,714.348 L 506.991,718.657 L 509.436,718.657 L 509.436,718.101 z "
   id="path2866"
   style="fill:#004689;fill-rule:nonzero;stroke:none" />

          <path
   d="M 511.313,716.174 L 512.652,716.174 L 511.957,717.735 L 511.313,716.174 z M 514.112,714.348 L 513.48,714.348 L 512.905,715.618 L 511.073,715.618 L 510.529,714.348 L 509.897,714.348 L 511.748,718.683 L 512.185,718.683 L 514.112,714.348 z "
   id="path2868"
   style="fill:#004689;fill-rule:nonzero;stroke:none" />

          <path
   d="M 518.642,714.348 L 518.111,714.348 L 515.23,717.665 L 515.23,714.348 L 514.648,714.348 L 514.648,718.657 L 515.142,718.657 L 518.061,715.321 L 518.061,718.657 L 518.642,718.657 L 518.642,714.348 z "
   id="path2870"
   style="fill:#004689;fill-rule:nonzero;stroke:none" />

          <path
   d="M 525.081,717.697 C 524.55,718.007 524.095,718.146 523.596,718.146 C 522.61,718.146 521.877,717.444 521.877,716.496 C 521.877,715.53 522.585,714.86 523.621,714.86 C 524.108,714.86 524.639,715.031 525.125,715.347 L 525.125,714.671 C 524.702,714.45 524.241,714.291 523.565,714.291 C 521.947,714.291 521.239,715.536 521.239,716.44 C 521.239,717.754 522.231,718.714 523.602,718.714 C 524.045,718.714 524.493,718.607 525.081,718.36 L 525.081,717.697 z "
   id="path2872"
   style="fill:#004689;fill-rule:nonzero;stroke:none" />

          <path
   d="M 528.417,718.101 L 526.591,718.101 L 526.591,716.8 L 528.354,716.8 L 528.354,716.244 L 526.591,716.244 L 526.591,714.904 L 528.474,714.904 L 528.474,714.348 L 525.972,714.348 L 525.972,718.657 L 528.417,718.657 L 528.417,718.101 z "
   id="path2874"
   style="fill:#004689;fill-rule:nonzero;stroke:none" />

          <path
   d="M 533.226,714.348 L 532.695,714.348 L 529.814,717.665 L 529.814,714.348 L 529.232,714.348 L 529.232,718.657 L 529.725,718.657 L 532.644,715.321 L 532.644,718.657 L 533.226,718.657 L 533.226,714.348 z "
   id="path2876"
   style="fill:#004689;fill-rule:nonzero;stroke:none" />

          <path
   d="M 537.44,718.101 L 535.949,718.101 L 535.949,714.348 L 535.33,714.348 L 535.33,718.101 L 533.839,718.101 L 533.839,718.657 L 537.44,718.657 L 537.44,718.101 z "
   id="path2878"
   style="fill:#004689;fill-rule:nonzero;stroke:none" />

          <path
   d="M 538.672,716.775 L 539.07,716.775 C 539.734,716.775 539.923,717.116 539.917,717.476 C 539.911,717.88 539.671,718.127 539.07,718.127 L 538.672,718.127 L 538.672,716.775 z M 539.14,718.657 C 540.011,718.657 540.555,718.196 540.555,717.451 C 540.555,716.952 540.296,716.579 539.834,716.395 C 540.226,716.137 540.467,715.738 540.795,715.201 C 540.979,714.904 541.086,714.759 541.383,714.348 L 540.643,714.348 L 540.075,715.233 C 539.506,716.118 539.247,716.218 538.931,716.218 L 538.672,716.218 L 538.672,714.348 L 538.053,714.348 L 538.053,718.657 L 539.14,718.657 z "
   id="path2880"
   style="fill:#004689;fill-rule:nonzero;stroke:none" />

          <path
   d="M 544.378,718.101 L 542.552,718.101 L 542.552,716.8 L 544.314,716.8 L 544.314,716.244 L 542.552,716.244 L 542.552,714.904 L 544.435,714.904 L 544.435,714.348 L 541.933,714.348 L 541.933,718.657 L 544.378,718.657 L 544.378,718.101 z "
   id="path2882"
   style="fill:#004689;fill-rule:nonzero;stroke:none" />

          <path
   d="M 549.218,718.101 L 547.537,718.101 L 547.537,716.908 L 549.218,716.908 L 549.218,716.351 L 547.537,716.351 L 547.537,714.348 L 546.918,714.348 L 546.918,718.657 L 549.218,718.657 L 549.218,718.101 z "
   id="path2884"
   style="fill:#004689;fill-rule:nonzero;stroke:none" />

          <path
   d="M 552.08,714.86 C 553.047,714.86 553.761,715.561 553.761,716.503 C 553.761,717.451 553.047,718.146 552.08,718.146 C 551.12,718.146 550.406,717.451 550.406,716.503 C 550.406,715.561 551.12,714.86 552.08,714.86 M 552.08,718.714 C 553.502,718.714 554.399,717.703 554.399,716.503 C 554.399,715.34 553.527,714.291 552.068,714.291 C 550.659,714.291 549.768,715.334 549.768,716.503 C 549.768,717.697 550.684,718.714 552.08,718.714"
   id="path2886"
   style="fill:#004689;fill-rule:nonzero;stroke:none" />

          <path
   d="M 555.859,716.775 L 556.257,716.775 C 556.921,716.775 557.11,717.116 557.103,717.476 C 557.097,717.88 556.857,718.127 556.257,718.127 L 555.859,718.127 L 555.859,716.775 z M 556.327,718.657 C 557.198,718.657 557.742,718.196 557.742,717.451 C 557.742,716.952 557.482,716.579 557.021,716.395 C 557.413,716.137 557.653,715.738 557.982,715.201 C 558.165,714.904 558.272,714.759 558.569,714.348 L 557.83,714.348 L 557.261,715.233 C 556.693,716.118 556.434,716.218 556.118,716.218 L 555.859,716.218 L 555.859,714.348 L 555.239,714.348 L 555.239,718.657 L 556.327,718.657 z "
   id="path2888"
   style="fill:#004689;fill-rule:nonzero;stroke:none" />

          <path
   d="M 487.51,708.585 L 488.496,708.585 C 489.899,708.585 490.221,709.653 490.221,710.184 C 490.221,711.05 489.671,711.783 488.464,711.783 L 487.51,711.783 L 487.51,708.585 z M 486.891,712.339 L 488.566,712.339 C 490.158,712.339 490.86,711.202 490.86,710.184 C 490.86,709.078 489.994,708.029 488.572,708.029 L 486.891,708.029 L 486.891,712.339 z "
   id="path2890"
   style="fill:#004689;fill-rule:nonzero;stroke:none" />

          <path
   d="M 492.313,708.029 L 491.694,708.029 L 491.694,712.338 L 492.313,712.338 L 492.313,708.029 z "
   id="path2892"
   style="fill:#004689;fill-rule:nonzero;stroke:none" />

          <path
   d="M 495.453,711.391 C 495.086,711.738 494.733,711.84 494.442,711.84 C 494.044,711.84 493.759,711.631 493.759,711.328 C 493.759,710.501 495.623,710.513 495.623,709.142 C 495.623,708.465 495.112,707.973 494.417,707.973 C 493.949,707.973 493.57,708.099 493.21,708.371 L 493.21,709.154 C 493.526,708.75 493.924,708.529 494.347,708.529 C 494.827,708.529 495.048,708.832 495.048,709.073 C 495.048,709.963 493.184,710.065 493.184,711.246 C 493.184,711.948 493.703,712.396 494.492,712.396 C 494.821,712.396 495.15,712.294 495.453,712.092 L 495.453,711.391 z "
   id="path2894"
   style="fill:#004689;fill-rule:nonzero;stroke:none" />

          <path
   d="M 498.871,711.783 L 497.046,711.783 L 497.046,710.482 L 498.808,710.482 L 498.808,709.925 L 497.046,709.925 L 497.046,708.585 L 498.929,708.585 L 498.929,708.029 L 496.426,708.029 L 496.426,712.339 L 498.871,712.339 L 498.871,711.783 z "
   id="path2896"
   style="fill:#004689;fill-rule:nonzero;stroke:none" />

          <path
   d="M 500.748,709.856 L 502.088,709.856 L 501.392,711.416 L 500.748,709.856 z M 503.547,708.029 L 502.915,708.029 L 502.34,709.299 L 500.508,709.299 L 499.965,708.029 L 499.333,708.029 L 501.184,712.365 L 501.62,712.365 L 503.547,708.029 z "
   id="path2898"
   style="fill:#004689;fill-rule:nonzero;stroke:none" />

          <path
   d="M 506.195,711.391 C 505.828,711.738 505.474,711.84 505.184,711.84 C 504.786,711.84 504.502,711.631 504.502,711.328 C 504.502,710.501 506.366,710.513 506.366,709.142 C 506.366,708.465 505.853,707.973 505.159,707.973 C 504.691,707.973 504.312,708.099 503.952,708.371 L 503.952,709.154 C 504.267,708.75 504.665,708.529 505.089,708.529 C 505.569,708.529 505.791,708.832 505.791,709.073 C 505.791,709.963 503.927,710.065 503.927,711.246 C 503.927,711.948 504.444,712.396 505.234,712.396 C 505.563,712.396 505.891,712.294 506.195,712.092 L 506.195,711.391 z "
   id="path2900"
   style="fill:#004689;fill-rule:nonzero;stroke:none" />

          <path
   d="M 509.613,711.783 L 507.787,711.783 L 507.787,710.482 L 509.55,710.482 L 509.55,709.925 L 507.787,709.925 L 507.787,708.585 L 509.67,708.585 L 509.67,708.029 L 507.168,708.029 L 507.168,712.339 L 509.613,712.339 L 509.613,711.783 z "
   id="path2902"
   style="fill:#004689;fill-rule:nonzero;stroke:none" />

          <path
   d="M 512.734,710.449 L 513.436,710.449 C 513.897,710.449 514.194,710.696 514.194,711.126 C 514.194,711.442 514.023,711.783 513.461,711.783 L 512.734,711.783 L 512.734,710.449 z M 513.461,712.339 C 514.402,712.339 514.832,711.783 514.832,711.1 C 514.832,710.424 514.377,709.893 513.379,709.893 L 512.734,709.893 L 512.734,708.029 L 512.115,708.029 L 512.115,712.339 L 513.461,712.339 z "
   id="path2904"
   style="fill:#004689;fill-rule:nonzero;stroke:none" />

          <path
   d="M 516.039,710.456 L 516.438,710.456 C 517.101,710.456 517.29,710.797 517.284,711.158 C 517.277,711.562 517.037,711.808 516.438,711.808 L 516.039,711.808 L 516.039,710.456 z M 516.507,712.339 C 517.379,712.339 517.922,711.878 517.922,711.132 C 517.922,710.633 517.663,710.26 517.202,710.077 C 517.593,709.818 517.833,709.42 518.162,708.882 C 518.346,708.585 518.453,708.441 518.75,708.029 L 518.01,708.029 L 517.442,708.914 C 516.873,709.799 516.615,709.9 516.298,709.9 L 516.039,709.9 L 516.039,708.029 L 515.42,708.029 L 515.42,712.339 L 516.507,712.339 z "
   id="path2906"
   style="fill:#004689;fill-rule:nonzero;stroke:none" />

          <path
   d="M 521.745,711.783 L 519.919,711.783 L 519.919,710.482 L 521.682,710.482 L 521.682,709.925 L 519.919,709.925 L 519.919,708.585 L 521.802,708.585 L 521.802,708.029 L 519.299,708.029 L 519.299,712.339 L 521.745,712.339 L 521.745,711.783 z "
   id="path2908"
   style="fill:#004689;fill-rule:nonzero;stroke:none" />

          <path
   d="M 524.165,707.992 L 524.038,707.992 L 522.174,712.339 L 522.794,712.339 L 524.089,709.312 L 525.378,712.339 L 525.991,712.339 L 524.165,707.992 z "
   id="path2910"
   style="fill:#004689;fill-rule:nonzero;stroke:none" />

          <path
   d="M 528.986,711.783 L 527.16,711.783 L 527.16,710.482 L 528.923,710.482 L 528.923,709.925 L 527.16,709.925 L 527.16,708.585 L 529.043,708.585 L 529.043,708.029 L 526.541,708.029 L 526.541,712.339 L 528.986,712.339 L 528.986,711.783 z "
   id="path2912"
   style="fill:#004689;fill-rule:nonzero;stroke:none" />

          <path
   d="M 533.794,708.029 L 533.264,708.029 L 530.382,711.347 L 530.382,708.029 L 529.801,708.029 L 529.801,712.339 L 530.294,712.339 L 533.213,709.003 L 533.213,712.339 L 533.794,712.339 L 533.794,708.029 z "
   id="path2914"
   style="fill:#004689;fill-rule:nonzero;stroke:none" />

          <path
   d="M 538.009,711.783 L 536.518,711.783 L 536.518,708.029 L 535.898,708.029 L 535.898,711.783 L 534.407,711.783 L 534.407,712.339 L 538.009,712.339 L 538.009,711.783 z "
   id="path2916"
   style="fill:#004689;fill-rule:nonzero;stroke:none" />

          <path
   d="M 539.241,708.029 L 538.622,708.029 L 538.622,712.338 L 539.241,712.338 L 539.241,708.029 z "
   id="path2918"
   style="fill:#004689;fill-rule:nonzero;stroke:none" />

          <path
   d="M 542.387,708.541 C 543.354,708.541 544.068,709.243 544.068,710.184 C 544.068,711.132 543.354,711.827 542.387,711.827 C 541.427,711.827 540.713,711.132 540.713,710.184 C 540.713,709.243 541.427,708.541 542.387,708.541 M 542.387,712.396 C 543.809,712.396 544.706,711.385 544.706,710.184 C 544.706,709.021 543.834,707.973 542.375,707.973 C 540.966,707.973 540.075,709.015 540.075,710.184 C 540.075,711.379 540.991,712.396 542.387,712.396"
   id="path2920"
   style="fill:#004689;fill-rule:nonzero;stroke:none" />

          <path
   d="M 549.521,708.029 L 548.99,708.029 L 546.109,711.347 L 546.109,708.029 L 545.528,708.029 L 545.528,712.339 L 546.02,712.339 L 548.94,709.003 L 548.94,712.339 L 549.521,712.339 L 549.521,708.029 z "
   id="path2922"
   style="fill:#004689;fill-rule:nonzero;stroke:none" />

          <path
   d="M 487.826,703.537 L 489.166,703.537 L 488.471,705.098 L 487.826,703.537 z M 490.625,701.711 L 489.994,701.711 L 489.419,702.981 L 487.586,702.981 L 487.043,701.711 L 486.411,701.711 L 488.262,706.046 L 488.699,706.046 L 490.625,701.711 z "
   id="path2924"
   style="fill:#004689;fill-rule:nonzero;stroke:none" />

          <path
   d="M 495.156,701.711 L 494.625,701.711 L 491.744,705.028 L 491.744,701.711 L 491.163,701.711 L 491.163,706.02 L 491.655,706.02 L 494.575,702.684 L 494.575,706.02 L 495.156,706.02 L 495.156,701.711 z "
   id="path2926"
   style="fill:#004689;fill-rule:nonzero;stroke:none" />

          <path
   d="M 496.843,702.267 L 497.829,702.267 C 499.231,702.267 499.554,703.335 499.554,703.865 C 499.554,704.732 499.004,705.464 497.797,705.464 L 496.843,705.464 L 496.843,702.267 z M 496.224,706.02 L 497.898,706.02 C 499.49,706.02 500.192,704.883 500.192,703.865 C 500.192,702.76 499.326,701.711 497.904,701.711 L 496.224,701.711 L 496.224,706.02 z "
   id="path2928"
   style="fill:#004689;fill-rule:nonzero;stroke:none" />

          <path
   d="M 506.447,705.06 C 505.917,705.37 505.462,705.508 504.962,705.508 C 503.977,705.508 503.244,704.807 503.244,703.859 C 503.244,702.892 503.951,702.223 504.988,702.223 C 505.474,702.223 506.005,702.393 506.492,702.71 L 506.492,702.034 C 506.068,701.812 505.607,701.654 504.931,701.654 C 503.313,701.654 502.606,702.899 502.606,703.802 C 502.606,705.117 503.598,706.077 504.969,706.077 C 505.411,706.077 505.86,705.97 506.447,705.723 L 506.447,705.06 z "
   id="path2930"
   style="fill:#004689;fill-rule:nonzero;stroke:none" />

          <path
   d="M 509.354,702.223 C 510.321,702.223 511.035,702.924 511.035,703.865 C 511.035,704.813 510.321,705.508 509.354,705.508 C 508.393,705.508 507.679,704.813 507.679,703.865 C 507.679,702.924 508.393,702.223 509.354,702.223 M 509.354,706.077 C 510.776,706.077 511.673,705.066 511.673,703.865 C 511.673,702.703 510.801,701.654 509.341,701.654 C 507.932,701.654 507.041,702.696 507.041,703.865 C 507.041,705.06 507.957,706.077 509.354,706.077"
   id="path2932"
   style="fill:#004689;fill-rule:nonzero;stroke:none" />

          <path
   d="M 516.487,701.711 L 515.957,701.711 L 513.076,705.028 L 513.076,701.711 L 512.494,701.711 L 512.494,706.02 L 512.987,706.02 L 515.906,702.684 L 515.906,706.02 L 516.487,706.02 L 516.487,701.711 z "
   id="path2934"
   style="fill:#004689;fill-rule:nonzero;stroke:none" />

          <path
   d="M 520.702,705.464 L 519.21,705.464 L 519.21,701.711 L 518.592,701.711 L 518.592,705.464 L 517.101,705.464 L 517.101,706.02 L 520.702,706.02 L 520.702,705.464 z "
   id="path2936"
   style="fill:#004689;fill-rule:nonzero;stroke:none" />

          <path
   d="M 521.934,704.138 L 522.332,704.138 C 522.996,704.138 523.185,704.478 523.179,704.839 C 523.173,705.243 522.933,705.489 522.332,705.489 L 521.934,705.489 L 521.934,704.138 z M 522.402,706.02 C 523.273,706.02 523.817,705.559 523.817,704.813 C 523.817,704.315 523.558,703.942 523.096,703.758 C 523.488,703.5 523.728,703.101 524.057,702.564 C 524.241,702.267 524.347,702.122 524.645,701.711 L 523.905,701.711 L 523.337,702.595 C 522.768,703.481 522.509,703.581 522.193,703.581 L 521.934,703.581 L 521.934,701.711 L 521.315,701.711 L 521.315,706.02 L 522.402,706.02 z "
   id="path2938"
   style="fill:#004689;fill-rule:nonzero;stroke:none" />

          <path
   d="M 527.103,702.223 C 528.07,702.223 528.784,702.924 528.784,703.865 C 528.784,704.813 528.07,705.508 527.103,705.508 C 526.143,705.508 525.429,704.813 525.429,703.865 C 525.429,702.924 526.143,702.223 527.103,702.223 M 527.103,706.077 C 528.525,706.077 529.422,705.066 529.422,703.865 C 529.422,702.703 528.55,701.654 527.09,701.654 C 525.681,701.654 524.79,702.696 524.79,703.865 C 524.79,705.06 525.707,706.077 527.103,706.077"
   id="path2940"
   style="fill:#004689;fill-rule:nonzero;stroke:none" />

          <path
   d="M 530.869,702.267 L 532.814,702.267 L 532.814,701.711 L 530.249,701.711 L 530.249,706.02 L 530.869,706.02 L 530.869,702.267 z "
   id="path2942"
   style="fill:#004689;fill-rule:nonzero;stroke:none" />

          <path
   d="M 460.83,742.908 C 461.285,747.956 463.405,751.289 467.798,751.289 C 473.857,751.289 473.857,744.574 473.857,742.908 L 460.83,742.908 z M 478.906,740.787 C 478.957,743.513 479.109,753.309 467.848,753.309 C 459.568,753.309 455.73,747.452 455.73,740.484 C 455.73,732.707 460.426,727.86 468.101,727.86 C 472.191,727.86 475.271,729.021 477.493,731.142 C 477.544,731.95 477.544,732.758 477.847,734.172 L 477.24,734.323 C 476.483,733.263 474.16,730.234 469.212,730.234 C 467.748,730.234 464.466,730.385 462.143,734.172 C 460.78,736.494 460.78,739.373 460.78,740.787 L 478.906,740.787 z "
   id="path2944"
   style="fill:#004689;fill-rule:evenodd;stroke:none" />

          <path
   d="M 557.625,732.909 C 555.807,730.94 552.828,730.184 550.758,730.184 C 547.829,730.184 541.922,731.698 541.922,740.989 C 541.922,747.3 544.851,751.289 550.456,751.289 C 552.273,751.289 555.151,750.835 556.615,747.099 L 557.222,747.099 C 557.373,748.058 557.575,749.471 558.332,751.39 C 555.807,752.854 552.979,753.41 550.001,753.41 C 541.67,753.41 536.671,748.31 536.671,740.584 C 536.671,734.172 540.457,727.86 550.052,727.86 C 553.384,727.86 556.009,728.82 557.524,729.83 C 557.575,730.536 557.625,731.395 558.08,732.758 L 557.625,732.909 z "
   id="path2946"
   style="fill:#004689;fill-rule:nonzero;stroke:none" />

          <path
   d="M 529.264,740.989 C 529.264,743.008 529.113,745.079 528.153,746.897 C 526.487,750.026 524.013,750.885 521.792,750.885 C 514.571,750.885 514.571,742.403 514.571,740.736 C 514.571,733.112 518.206,730.335 521.488,730.335 C 524.266,730.335 526.083,731.445 527.194,732.961 C 528.103,734.172 529.264,735.989 529.264,740.989 M 526.521,754.073 C 526.541,754.637 526.483,755.438 526.22,756.668 C 525.999,757.696 525.653,758.628 525.255,759.539 C 524.858,760.45 524.411,761.341 523.987,762.29 C 523.141,764.187 522.391,766.312 522.34,769.281 C 522.268,773.519 525.681,776.919 528.794,778.304 C 531.794,779.638 535.645,778.969 536.298,777.638 C 536.717,776.782 536.869,776.209 536.203,774.876 C 535.536,773.543 534.069,772.266 531.879,771.314 C 531.332,771.076 530.795,770.939 530.265,770.848 C 529.737,770.755 529.215,770.708 528.699,770.649 C 527.669,770.531 526.659,770.364 525.651,769.695 C 524.658,769.036 524.89,767.276 525.651,764.99 C 526.032,763.849 527.27,761.489 528.559,759.05 C 529.849,756.61 531.192,754.092 531.785,752.63 C 533.201,749.136 534.301,744.897 534.301,740.649 C 534.301,731.887 526.9,727.827 521.965,727.827 C 517.571,727.827 514.532,728.909 512.284,731.413 C 511.463,732.327 510.432,733.65 509.443,735.756 C 508.814,737.097 507.68,739.578 506.361,742.053 C 505.042,744.527 503.539,746.995 502.168,748.307 C 500.332,750.065 498.493,751.269 495.197,751.289 C 489.592,751.322 486.664,747.301 486.664,740.989 C 486.664,731.698 492.572,730.184 495.5,730.184 C 497.57,730.184 500.293,731.213 502.368,732.908 C 503.408,733.758 503.972,733.562 504.257,733.277 C 504.377,733.156 504.351,732.956 504.227,732.71 C 504.105,732.465 503.888,732.178 503.631,731.881 C 503.125,731.294 502.467,730.676 502.086,730.302 C 500.543,729.271 498.115,727.86 494.793,727.86 C 485.199,727.86 481.412,734.172 481.412,740.584 C 481.412,748.31 486.414,753.635 494.743,753.41 C 499.381,753.285 501.525,751.703 503.191,750.441 C 504.823,749.203 507.392,746.493 509.044,742.957 L 509.323,742.36 L 509.397,743.016 C 510.211,750.219 515.049,753.521 521.781,753.521 C 523.476,753.521 525.107,753.245 526.168,752.953 L 526.362,752.9 L 526.4,753.096 C 526.447,753.34 526.507,753.637 526.521,754.073"
   id="path2948"
   style="fill:#8db721;fill-rule:evenodd;stroke:none" />

        </g>
  </g>
</svg>
