<?xml version="1.0" encoding="UTF-8"?>
<svg viewBox="0 0 158 126" version="1.1" xmlns="http://www.w3.org/2000/svg" xmlns:xlink="http://www.w3.org/1999/xlink">
    <defs>
        <style>
        .stroke {
            stroke: #FFFFFF;
            stroke-width: 2;
            fill: none;
        }
        .fill-white, .fill {
            fill: #FFFFFF;
            fill-rule: nonzero;
            stroke: none;
        }
        .fill {
            fill: #f00;
        }
        </style>
    </defs>
    <symbol id="geo">
        <circle class="stroke" cx="16" cy="16" r="15"></circle>
        <g transform="translate(7, 5)">
            <path d="M8.72669091,1 C6.59644001,1 4.66502624,1.86702132 3.26601044,3.26613039 C1.86696604,4.66526807 1,6.59685261 1,8.72727273 C1,11.6915019 4.83326983,17.0318815 8.94292666,21.3409848 C11.3568432,18.5225033 16.4533818,12.2387963 16.4533818,8.72698182 C16.4535106,6.59668494 15.5865607,4.66522087 14.1875318,3.26614532 C12.7884736,1.86704052 10.8569709,1 8.72669091,1 Z" class="stroke" ></path>
            <circle class="fill-white" cx="8.93636364" cy="8.84545455" r="3.5"></circle>
        </g>
    </symbol>
    <symbol id="2-Contacts">
        <circle class="stroke" cx="16" cy="16" r="15"></circle>
        <g transform="translate(10, 6)" class="fill-white" >
            <path d="M3.50230975,20.9833118 C3.95818138,20.9833118 4.14539266,20.7892626 4.14539266,20.6115136 C4.14539266,20.4337646 4.14539266,19.8324062 4.14539266,19.8324062 L4.14539266,13.0474774 C4.66721371,12.7723157 5,12.3556921 5,11.889586 L5,7.50058215 C5,6.67179819 3.9481522,6 2.65043764,6 L2.34986628,6 C1.0518478,6 0,6.67179819 0,7.50058215 L0,11.8901682 C0,12.3554981 0.332786287,12.7721216 0.854607343,13.0472833 C0.852479942,15.4971539 0.848529054,20.6111255 0.848529054,20.6247089 C0.848529054,20.8317594 1.11141503,21 1.43660345,21 C1.43660345,20.999806 3.04643812,20.9833118 3.50230975,20.9833118 Z"></path>
            <path d="M2.51320925,5 C3.89553156,4.99312458 5.00773062,3.86545204 5,2.48694384 C4.99249927,1.10625987 3.86631224,-0.00711473577 2.48616584,0 C1.10664112,0.00811568176 -0.00742300073,1.1342341 0,2.51429643 C0.00718665715,3.89404792 1.13213031,5.00742253 2.51320925,5 Z"></path>
            <path d="M11.5023097,20.9833118 C11.9581814,20.9833118 12.1453927,20.7892626 12.1453927,20.6115136 C12.1453927,20.4337646 12.1453927,19.8324062 12.1453927,19.8324062 L12.1453927,13.0474774 C12.6672137,12.7723157 13,12.3556921 13,11.889586 L13,7.50058215 C13,6.67179819 11.9481522,6 10.6507416,6 L10.3498663,6 C9.0518478,6 8,6.67179819 8,7.50058215 L8,11.8901682 C8,12.3554981 8.33278629,12.7721216 8.85460734,13.0472833 C8.85217603,15.4971539 8.84822514,20.6111255 8.84822514,20.6247089 C8.84822514,20.8317594 9.11111111,21 9.43660345,21 C9.43660345,20.999806 11.0464381,20.9833118 11.5023097,20.9833118 Z"></path>
            <path d="M10.5132108,5 C11.8952232,4.99312458 13.0074229,3.86545204 13,2.48694384 C12.9925024,1.10625987 11.8663147,-0.00711473577 10.4861674,0 C9.10664182,0.00811568176 7.99257699,1.1342341 8,2.51429643 C8.00718666,3.89404792 9.13213103,5.00742253 10.5132108,5 Z"></path>
        </g>
    </symbol>
    <symbol id="bell" class="stroke">
        <circle cx="16" cy="16" r="15"></circle>
        <g transform="translate(6, 4)" >
            <path d="M9.78142352,1.08942935 C9.72643484,1.14443367 9.69196163,1.22026584 9.69196163,1.30416526 L9.69196163,3.47796411 L8.22612707,3.86441584 C6.93023767,4.25073851 5.82754675,5.04445184 5.04991847,6.08656791 C4.27656033,7.12296147 3.82488753,8.40535625 3.82488753,9.77813063 L3.81862052,15.1713989 C3.77171673,15.8365985 3.46712552,16.4314475 3.0034353,16.8551577 C2.55503552,17.2648957 1.95859359,17.5147271 1.30470121,17.5147271 C1.28052032,17.5147271 1.25880606,17.5248991 1.24300116,17.5406909 C1.22747705,17.556202 1.21729904,17.5774607 1.21729904,17.6012223 C1.21729904,17.6246835 1.22704814,17.6458035 1.24244193,17.6611367 C1.25923396,17.6778625 1.28257231,17.6877175 1.30809381,17.6877175 L18.7175406,17.681354 C18.7309818,17.6759386 18.7427959,17.6673387 18.7522775,17.6568028 C18.7655648,17.642038 18.7742127,17.6226887 18.7742127,17.6012223 C18.7742127,17.5775159 18.7636918,17.5564951 18.7482566,17.5410728 C18.732496,17.5253253 18.7109786,17.5147271 18.6868105,17.5147271 C17.9897488,17.5147271 17.359645,17.2326009 16.9037551,16.7762117 C16.4485303,16.3204885 16.1666242,15.690637 16.1666242,14.9928762 L16.1620194,9.5381952 C16.1097405,8.17829553 15.6141252,6.91746439 14.8051925,5.91087143 C13.9905086,4.89712187 12.8579904,4.14100462 11.5398226,3.80184117 L10.3029345,3.48359099 L10.2931245,1.24020502 C10.2797941,1.1761868 10.246176,1.11975901 10.1995145,1.07764865 C10.1456308,1.02902039 10.0740647,1 9.78142352,1.08942935 Z"></path>
        </g>
    </symbol>
    <symbol id="hand">
        <g transform="translate(5, 11)" class="fill-white">
            <g stroke-linecap="round" transform="translate(12.492814, 5.779888) rotate(7) translate(-12.492814, -5.779888) translate(2.992814, 1.279888)">
                <path d="M6.87495188,3.89352693 C9.79287517,3.20267608 11.2613828,2.8544477 11.2804749,2.84884181 C12.6569134,2.44468568 13.6093478,1.46098584 14.3046528,1.2568272 C15.0144243,1.04842086 16.0790816,0.73581135 17.4986246,0.318998667 C17.9601693,0.183477805 18.6909679,0.175165855 18.8456007,0.63301714 L18.8359579,0.604466007 C18.9901096,1.06089282 18.784213,1.63402373 18.3722738,1.88692337 L10.0150277,7.01764324 C9.64179929,7.24677739 8.98939743,7.47573801 8.55626952,7.52923599 L0.688327345,8.50104819 L0.0254627769,3.59440087 C2.63079682,1.33822913 4.25624309,0.170275045 4.90180156,0.0905386184 C5.87013927,-0.0290660218 10.6038004,0.413152422 11.4720746,0.306541759 C11.9683477,0.245607087 12.4764497,0.28101177 12.5255554,0.680945492 C12.5406236,0.803665698 12.3522865,1.03872169 11.593944,1.29908791 C10.9913376,1.50598432 10.024735,1.50026986 9.15392357,1.82300546 C8.28693054,2.1443259 8.18096709,2.22190369 6.61667248,2.54716968 C6.48032215,2.5755212 6.27285224,3.0925734 6.31774413,3.45818853 C6.34767206,3.70193195 6.53340798,3.84704475 6.87495188,3.89352693 Z"></path>
            </g>
            <polygon points="0.107541751 2.83954273 0.107541751 9.3237735 2.33750691 9.3237735 2.33750691 2.83954273"></polygon>
        </g>
        <circle class="stroke" cx="16" cy="16" r="15"></circle>
    </symbol>
    <symbol id="task">
        <circle class="stroke" cx="16" cy="16" r="15"></circle>
        <g transform="translate(6.563636, 7.400000)" >
            <g class="fill-white">
                <polygon points="5 1 17.8571429 1 17.8571429 2.92857143 5 2.92857143"></polygon>
                <polygon points="5 10 11 10 11 11.9285714 5 11.9285714"></polygon>
                <polygon points="5 5.6 17.8571429 5.6 17.8571429 7.52857143 5 7.52857143"></polygon>
                <polygon points="5 14.6 14 14.6 14 16.5285714 5 16.5285714"></polygon>
                <circle cx="1.88024384" cy="1.88024384" r="1.28571429"></circle>
                <circle cx="1.88024384" cy="6.41435462" r="1.28571429"></circle>
                <circle cx="1.88024384" cy="10.9484654" r="1.28571429"></circle>
                <circle cx="1.88024384" cy="15.4550967" r="1.28571429"></circle>
            </g>
            <path d="M20.4087849,6.20697933 L17.4711564,9.27459139 L16.2296826,10.5802724 L15.0049957,11.8351339 L12.3163719,9.44763592 L9.89041314,12.0941364 L11.9169192,13.88223 L12.6233556,14.5030397 L15.1780409,16.8158411 L17.3119126,14.6538922 L18.5563657,13.3450708 L23.0096723,8.69815164 L21.6909973,7.45273643 L20.4087849,6.20697933 Z" class="stroke"></path>
        </g>
    </symbol>
    <symbol id="guard">
        <path d="M13.4729892,1.15647178 C12.9598666,0.948415779 12.3907827,0.948415779 11.8817995,1.15480409 L2.35177329,4.96972545 C1.93684636,5.13278851 1.59862971,5.41178917 1.36355911,5.76058103 C1.12806513,6.11000108 0.996053541,6.52946757 0.999960771,6.97056937 L1,11.9804153 C1.03355322,19.6486269 5.06503591,26.7459394 11.6311316,30.6895154 C11.9529934,30.8853528 12.3149003,30.9914114 12.6854742,30.9999941 C13.0704982,30.998915 13.4479535,30.8925394 13.7772131,30.6923358 C20.3223578,26.7328567 24.3297,19.6382449 24.3506531,11.9776801 L24.3506494,6.97942691 C24.3545958,6.52946757 24.2225842,6.11000108 23.9870902,5.76058103 C23.7520196,5.41178917 23.413803,5.13278851 23.0047913,4.97207152 L13.4729892,1.15647178 Z" class="stroke"></path>
        <path d="M7.48051948,11.2207792 C7.48051948,8.23700707 9.89934473,5.81818182 12.8831169,5.81818182 C15.866889,5.81818182 18.2857143,8.23700707 18.2857143,11.2207792 C18.2857143,12.6536371 17.7165137,14.0278089 16.7033301,15.0409925 C15.6901466,16.054176 14.3159748,16.6233766 12.8831169,16.6233766 C9.89934473,16.6233766 7.48051948,14.2045514 7.48051948,11.2207792 Z" class="fill-white"></path>
        <path d="M12.6753247,31.5844156 C10.5618194,31.5844156 7.58346445,28.956395 3.74025974,23.700354 C5.48888636,20.3699358 8.92820192,18.2857143 12.6753247,18.2857143 C16.4224474,18.2857143 19.861763,20.3699358 21.6103896,23.700354 C17.7671849,28.956395 14.7888299,31.5844156 12.6753247,31.5844156 Z" class="fill-white"></path>
    </symbol>
    <symbol id="track">
        <circle class="stroke" cx="16" cy="16" r="15"></circle>
        <g transform="translate(6, 7)" class="fill-white" >
            <path d="M15.0548871,2.42574157 C15.0548871,3.12995199 15.3707814,3.76248581 15.8647861,4.20714349 L13.7561573,7.87062698 C13.471052,7.75710239 13.1625219,7.69058751 12.8376305,7.69058751 C12.0553253,7.69058751 11.3618441,8.06014858 10.9076443,8.62274291 L9.43027439,7.78534248 C9.5080999,7.55064915 9.56184393,7.30526146 9.56184393,7.04624962 C9.56184393,5.71375042 8.44659394,4.61932498 7.08870589,4.61932498 C5.73081783,4.61932498 4.62159871,5.71375042 4.62159871,7.04624962 C4.62159871,7.76481705 4.95006365,8.40687422 5.46046231,8.8525264 L2.7097139,13.1757432 C2.63067548,13.1681787 2.55408774,13.1520738 2.47314291,13.1520738 C1.11525458,13.1520738 0,14.2464762 0,15.5789981 C0,16.9115204 1.11525458,18 2.47314291,18 C3.83103317,18 4.94507799,16.9115204 4.94507799,15.5789981 C4.94507799,14.7641856 4.52568224,14.0417674 3.89136618,13.6009762 L6.56365996,9.41396382 C6.73365047,9.4507287 6.90789557,9.47199865 7.08870561,9.47199865 C7.73859589,9.47199865 8.32954042,9.21725815 8.77246838,8.8098954 L10.4043275,9.7337608 C10.3835504,9.85961545 10.3645278,9.98621841 10.3645278,10.1175189 C10.3645278,11.4500409 11.4797778,12.5432606 12.8376659,12.5432606 C14.1955609,12.5432606 15.309601,11.4500409 15.309601,10.1175189 C15.309601,9.54490156 15.0956996,9.02277328 14.7531731,8.60616997 L16.9547383,4.77923188 C17.139375,4.82294034 17.3292374,4.85266946 17.526855,4.85266946 C18.88475,4.85266946 20,3.75826707 20,2.42574482 C20,1.09322502 18.88475,0 17.526855,0 C16.1689319,0 15.0548871,1.0932196 15.0548871,2.42574157 Z M17.52682,1.21287112 C18.2167486,1.21287112 18.7627874,1.74869676 18.7627874,2.42574184 C18.7627874,3.10276442 18.2167486,3.63979576 17.52682,3.63979576 C16.8368982,3.63979576 16.2908523,3.10276442 16.2908523,2.42574184 C16.2908523,1.74869676 16.8368982,1.21287112 17.52682,1.21287112 L17.52682,1.21287112 Z M7.0886987,5.83338595 C7.77862044,5.83338595 8.32587128,6.3692322 8.32587128,7.04625423 C8.32587128,7.72329931 7.77862044,8.25912522 7.0886987,8.25912522 C6.39876978,8.25912522 5.85273103,7.72329931 5.85273103,7.04625423 C5.85273103,6.36923165 6.39876978,5.83338595 7.0886987,5.83338595 Z M12.8376305,8.90346257 C13.0899169,8.90346257 13.3217714,8.97722008 13.5159671,9.1012663 C13.5672423,9.16009167 13.629519,9.20874076 13.6994351,9.24458698 C13.9302233,9.46414056 14.0736051,9.77223243 14.0736051,10.1175208 C14.0736051,10.7945431 13.5275661,11.3303894 12.8376374,11.3303894 C12.1477157,11.3303894 11.6004671,10.7945429 11.6004671,10.1175208 C11.6004671,10.0194215 11.6149447,9.92542432 11.6366694,9.83443802 C11.7107016,9.74244043 11.755979,9.63136074 11.7670233,9.51463913 C11.9784977,9.14938465 12.3732657,8.90346257 12.8376305,8.90346257 L12.8376305,8.90346257 Z M2.47313462,14.3649288 C3.16305885,14.3649288 3.7091023,14.901962 3.7091023,15.5789846 C3.7091023,16.2560069 3.16305885,16.7871176 2.47313462,16.7871176 C1.78321261,16.7871176 1.23595707,16.2560299 1.23595707,15.5789846 C1.23595707,14.9019626 1.78321261,14.3649288 2.47313462,14.3649288 Z"></path>
        </g>
    </symbol>
    <symbol id="alert" >
        <path d="M17.4182435,21.2662727 C17.4182435,21.994428 16.7707806,22.5478261 15.9188558,22.5478261 C15.0669309,22.5478261 14.419468,21.994428 14.419468,21.2662727 L14.419468,20.8293795 C14.419468,20.1012241 15.0669309,19.5478261 15.9188558,19.5478261 C16.7707806,19.5478261 17.4523205,20.1012241 17.4182435,20.8293795 L17.4182435,21.2662727 Z M17.4803376,17.1478261 C17.4803376,18.0173913 16.819468,18.6782609 15.9499028,18.6782609 C15.0803376,18.6782609 14.419468,18.0173913 14.419468,17.1478261 L14.419468,8.90434783 C14.419468,8.03478261 15.0803376,7.37391304 15.9499028,7.37391304 C16.819468,7.37391304 17.5151202,8.10434783 17.4803376,8.93913043 L17.4803376,17.1478261 Z" class="fill-white" ></path>
        <path d="M15.9846854,1 C14.7066886,1 13.5355778,1.65034421 12.8824825,2.76604877 L1.815551,21.4545714 C1.47682908,22.0079338 1.30678088,22.6289792 1.30210927,23.2503021 C1.2974034,23.8761828 1.46030963,24.502232 1.78683032,25.0600382 C2.44305821,26.1810942 3.61747609,26.8956522 4.95859846,26.8956522 L27.045555,26.8956522 C27.7141931,26.8956522 28.3428371,26.7277123 28.88587,26.414064 C29.4287279,26.1005168 29.8846611,25.6420869 30.2120944,25.0690785 C30.5440661,24.5018523 30.7070232,23.8752107 30.6976036,23.2488071 C30.6883096,22.630762 30.5107911,22.0133805 30.1591397,21.4634854 L19.0460619,2.79072762 C18.740007,2.22550794 18.300277,1.77980685 17.7788145,1.47523585 C17.2457567,1.16389233 16.628656,1 15.9846854,1 Z" id="Path" class="stroke"></path>
    </symbol>
    <symbol id="world">
        <g transform="translate(0.837818, 0.837818)" class="fill-white">
            <path d="M14.2994633,14.2994633 L14.2994633,7.55519918 L9.12380218,7.55519918 C8.6656803,9.59504871 8.38907631,11.887868 8.34864202,14.2994633 L14.2994633,14.2994633 Z"></path>
            <path d="M7.19779178,15.4896276 L0.414213613,15.4896276 C0.516394888,17.9389438 1.22469098,20.2339336 2.39263321,22.2338917 L7.9519206,22.2338917 C7.50116957,20.1897013 7.23638773,17.9111771 7.19779178,15.4896276 Z"></path>
            <path d="M29.3748773,15.4896276 C29.2760388,17.9420873 28.5655029,20.2351311 27.3977683,22.2338917 L21.8371703,22.2338917 C22.2882222,20.192246 22.5538907,17.9114764 22.5909598,15.4896276 L29.3748773,15.4896276 Z"></path>
            <path d="M7.9519206,7.55519918 C7.50090637,9.60301951 7.23523793,11.8837891 7.19813107,14.2994633 L0.414213613,14.2994633 C0.513089818,11.8531408 1.22358805,9.56009693 2.39132264,7.55519918 L7.9519206,7.55519918 Z"></path>
            <path d="M15.4896276,0.414213613 L15.4896276,6.36503492 L20.2502846,6.36503492 C19.5610097,3.86957849 18.5797944,1.8581527 17.4337163,0.637794297 C16.799218,0.518560993 16.1506078,0.442129318 15.4896276,0.414213613 Z"></path>
            <path d="M15.4896276,15.4896276 L15.4896276,22.2338917 L20.6654357,22.2338917 C21.1234988,20.1939674 21.4000166,17.9012229 21.4404489,15.4896276 L15.4896276,15.4896276 Z"></path>
            <path d="M10.3322491,28.5814345 C7.43646801,27.6378824 4.94665459,25.8092988 3.19126355,23.424056 L8.08725528,23.424056 C8.64850377,25.4752747 9.4127725,27.2334621 10.3322491,28.5814345 Z"></path>
            <path d="M8.08706546,6.36503492 C8.64707626,4.31241843 9.41361408,2.5550229 10.3322491,1.20765645 C7.43332457,2.15050854 4.94249589,3.97834317 3.19126355,6.36503492 L8.08706546,6.36503492 Z"></path>
            <path d="M21.702141,23.424056 C21.1421195,25.4767525 20.3755075,27.2341196 19.4568418,28.5814345 C22.3556332,27.6387294 24.8464932,25.8111106 26.5978274,23.424056 L21.702141,23.424056 Z"></path>
            <path d="M14.2994633,29.3748773 L14.2994633,23.424056 L9.53880628,23.424056 C10.2279596,25.919348 11.2090975,27.9305908 12.3549611,29.15105 C12.9895851,29.2703518 13.6383212,29.3469262 14.2994633,29.3748773 Z"></path>
            <path d="M12.3532409,0.635054254 C12.9883959,0.515672071 13.6351806,0.438075461 14.2994633,0.414213613 L14.2994633,6.36503492 L9.53880628,6.36503492 C10.226384,3.87010385 11.2053457,1.8586397 12.3532409,0.635054254 Z"></path>
            <path d="M8.34864202,15.4896276 L14.2994633,15.4896276 L14.2994633,22.2338917 L9.12304832,22.2338917 C8.66436709,20.1983831 8.3903436,17.9053393 8.34864202,15.4896276 Z"></path>
            <path d="M21.4404489,14.2994633 L15.4896276,14.2994633 L15.4896276,7.55519918 L20.6660742,7.55519918 C21.1247219,9.59688229 21.398747,11.8899262 21.4404489,14.2994633 Z"></path>
            <path d="M15.4896276,23.424056 L20.2502846,23.424056 C19.5627017,25.9224591 18.5837683,27.9318084 17.4358289,29.1541881 C16.8007048,29.2734127 16.1480825,29.3510032 15.4896276,29.3748773 L15.4896276,23.424056 Z"></path>
            <path d="M21.8371703,7.55519918 C22.2879223,9.59938956 22.5526981,11.8779513 22.5912877,14.2994633 L29.3748773,14.2994633 C29.2735796,11.8505961 28.5655888,9.55538183 27.3975379,7.55519918 L21.8371703,7.55519918 Z"></path>
            <path d="M26.5978274,6.36503492 L21.7018356,6.36503492 C21.1405872,4.3173392 20.3763549,2.55713737 19.4568418,1.20765645 C22.3526593,2.15228948 24.8424364,3.98289651 26.5978274,6.36503492 Z"></path>
        </g>
    </symbol>
    <symbol id="gov">
        <g transform="translate(4, 3)">
            <polygon points="2 23.8083331 21 23.8083331 21 24.9156974 2 24.9156974"  class="fill-white"></polygon>
            <path d="M22.978959,13.288372 L19.4928018,13.288372 C19.1611296,9.4125968 16.0315615,6.30920827 12.1578073,6.03873453 C12.1904762,5.96454112 12.1816168,5.82252164 12.1816168,5.73642407 L12.1816168,3.99869259 C13.8427464,3.43282942 15.227021,5.43937359 16.6112957,4.26888949 C16.6112957,3.13411789 16.6112957,1.99962314 16.6112957,0.864851541 C15.227021,2.03561248 13.6766334,0.0279609493 12.1830011,0.594931486 C12.1782946,0.265767439 11.9593023,0 11.6290144,0 C11.2959579,0 11.0741971,0.270196896 11.0741971,0.603236718 L11.0741971,5.73642407 C11.0741971,5.8222448 11.070598,5.96398744 11.10299,6.03790401 C7.22452935,6.3033946 4.09496124,9.4125968 3.76301218,13.288372 L0.276854928,13.288372 L0.276854928,22.9778098 L22.978959,22.9778098 L22.978959,13.288372 Z M5.26024363,20.6941477 C5.26024363,21.2051964 4.80204873,21.6193506 4.29125138,21.6193506 C3.78017719,21.6193506 3.32225914,21.2049195 3.32225914,20.6941477 L3.32225914,16.2024012 C3.32225914,15.6913525 3.78045404,15.2771983 4.29125138,15.2771983 C4.80204873,15.2771983 5.26024363,15.6916294 5.26024363,16.2024012 L5.26024363,20.6941477 Z M10.2436323,20.6941477 C10.2436323,21.2051964 9.78543743,21.6193506 9.27464009,21.6193506 C8.76356589,21.6193506 8.30564784,21.2049195 8.30564784,20.6941477 L8.30564784,16.2024012 C8.30564784,15.6913525 8.76384275,15.2771983 9.27464009,15.2771983 C9.78543743,15.2771983 10.2436323,15.6916294 10.2436323,16.2024012 L10.2436323,20.6941477 Z M14.9501661,20.6941477 C14.9501661,21.2051964 14.4919712,21.6193506 13.9811739,21.6193506 C13.4703765,21.6193506 13.0121816,21.2049195 13.0121816,20.6941477 L13.0121816,16.2024012 C13.0121816,15.6913525 13.4703765,15.2771983 13.9811739,15.2771983 C14.4922481,15.2771983 14.9501661,15.6916294 14.9501661,16.2024012 L14.9501661,20.6941477 Z M19.9335548,20.6941477 C19.9335548,21.2051964 19.4753599,21.6193506 18.9645626,21.6193506 C18.4537652,21.6193506 17.9955703,21.2049195 17.9955703,20.6941477 L17.9955703,16.2024012 C17.9955703,15.6913525 18.4537652,15.2771983 18.9645626,15.2771983 C19.4756368,15.2771983 19.9335548,15.6916294 19.9335548,16.2024012 L19.9335548,20.6941477 Z"  class="fill-white" ></path>
        </g>
        <circle class="stroke" cx="16" cy="16" r="15"></circle>
    </symbol>

    <polygon points="0 0 158 0 158 126 0 126"  class="fill" />

    <use xlink:href="#geo" x="0" y="0" />
    <use xlink:href="#2-Contacts" x="42" y="0" />
    <use xlink:href="#bell" x="84" y="0" />
    <use xlink:href="#hand" x="126" y="0" />
    <use xlink:href="#task" x="0" y="47" />
    <use xlink:href="#guard" x="41" y="47" />
    <use xlink:href="#track" x="78" y="47" />
    <use xlink:href="#alert" x="120" y="47" />
    <use xlink:href="#world" x="0" y="94" />
    <use xlink:href="#gov" x="41" y="94" />
</svg>