<?xml version="1.0" encoding="UTF-8"?>
<svg viewBox="0 0 181 26" version="1.1" xmlns="http://www.w3.org/2000/svg" xmlns:xlink="http://www.w3.org/1999/xlink" >
    <title>Open COVID Trace</title>
    <path d="M8.294,21.132 C10.89,21.132 13.904,19.812 14.828,17.502 L11.88,15.764 C11.242,17.326 9.68,17.92 8.382,17.92 C5.874,17.92 4.268,15.676 4.268,13.19 C4.268,10.924 5.566,8.504 8.338,8.504 C9.614,8.504 11.176,8.988 11.88,10.638 L14.652,8.702 C13.596,6.678 11.352,5.292 8.426,5.292 C3.498,5.292 0.594,9.274 0.594,13.058 C0.594,17.062 3.762,21.132 8.294,21.132 Z M23.386,21.132 C27.918,21.132 31.174,17.348 31.174,13.234 C31.174,9.274 28.094,5.292 23.452,5.292 C18.942,5.292 15.642,9.032 15.642,13.168 C15.642,17.194 18.744,21.132 23.386,21.132 Z M23.408,17.92 C20.746,17.92 19.316,15.61 19.316,13.212 C19.316,10.858 20.68,8.504 23.408,8.504 C26.048,8.504 27.5,10.748 27.5,13.168 C27.5,15.5 26.158,17.92 23.408,17.92 Z M40.48,21 L46.156,5.38 L42.35,5.38 L38.72,16.776 L35.046,5.38 L31.218,5.38 L36.938,21 L40.48,21 Z M51.348,21 L51.348,5.38 L47.74,5.38 L47.74,21 L51.348,21 Z M60.302,21 C65.01,21 68.09,17.898 68.09,13.168 C68.09,8.856 65.45,5.38 60.302,5.38 L54.472,5.38 L54.472,21 L60.302,21 Z M60.302,17.832 L58.08,17.832 L58.08,8.548 L60.302,8.548 C62.898,8.548 64.416,10.418 64.416,13.168 C64.416,15.852 62.942,17.832 60.302,17.832 Z M82.412,21.132 C85.008,21.132 88.022,19.812 88.946,17.502 L85.998,15.764 C85.36,17.326 83.798,17.92 82.5,17.92 C79.992,17.92 78.386,15.676 78.386,13.19 C78.386,10.924 79.684,8.504 82.456,8.504 C83.732,8.504 85.294,8.988 85.998,10.638 L88.77,8.702 C87.714,6.678 85.47,5.292 82.544,5.292 C77.616,5.292 74.712,9.274 74.712,13.058 C74.712,17.062 77.88,21.132 82.412,21.132 Z M97.504,21.132 C102.036,21.132 105.292,17.348 105.292,13.234 C105.292,9.274 102.212,5.292 97.57,5.292 C93.06,5.292 89.76,9.032 89.76,13.168 C89.76,17.194 92.862,21.132 97.504,21.132 Z M97.526,17.92 C94.864,17.92 93.434,15.61 93.434,13.212 C93.434,10.858 94.798,8.504 97.526,8.504 C100.166,8.504 101.618,10.748 101.618,13.168 C101.618,15.5 100.276,17.92 97.526,17.92 Z M111.122,21 L111.122,12.068 L118.272,21 L121.22,21 L121.22,5.38 L117.612,5.38 L117.612,14.576 L110.374,5.38 L107.514,5.38 L107.514,21 L111.122,21 Z M131.494,21 L131.494,8.548 L136.246,8.548 L136.246,5.38 L123.112,5.38 L123.112,8.548 L127.886,8.548 L127.886,21 L131.494,21 Z M141.746,21 L141.746,15.962 L144.188,15.962 L147.18,21 L151.162,21 L147.73,15.192 C149.292,14.334 150.282,12.574 150.282,10.66 C150.282,8.064 148.126,5.38 145.178,5.38 L138.138,5.38 L138.138,21 L141.746,21 Z M145.046,12.816 L141.746,12.816 L141.746,8.548 L144.936,8.548 C145.75,8.548 146.608,9.384 146.608,10.66 C146.608,11.914 145.904,12.816 145.046,12.816 Z M159.72,21.132 C164.252,21.132 167.508,17.348 167.508,13.234 C167.508,9.274 164.428,5.292 159.786,5.292 C155.276,5.292 151.976,9.032 151.976,13.168 C151.976,17.194 155.078,21.132 159.72,21.132 Z M159.742,17.92 C157.08,17.92 155.65,15.61 155.65,13.212 C155.65,10.858 157.014,8.504 159.742,8.504 C162.382,8.504 163.834,10.748 163.834,13.168 C163.834,15.5 162.492,17.92 159.742,17.92 Z M180.906,21 L180.906,17.832 L173.338,17.832 L173.338,5.38 L169.73,5.38 L169.73,21 L180.906,21 Z"></path>
</svg>
