<?xml version="1.0" encoding="UTF-8"?>
<svg viewBox="200 0 575 570" version="1.1" xmlns="http://www.w3.org/2000/svg" xmlns:xlink="http://www.w3.org/1999/xlink">
    <symbol id="apple-point">
        <defs>
            <linearGradient x1="50%" y1="12.120643%" x2="50%" y2="83.4585337%" id="linearGradient-1">
                <stop stop-color="#000000" stop-opacity="0" offset="0%"></stop>
                <stop stop-color="#000000" offset="100%"></stop>
            </linearGradient>
            <filter x="-30.0%" y="-23.1%" width="160.0%" height="146.2%" filterUnits="objectBoundingBox" id="filter">
                <feGaussianBlur stdDeviation="2" in="SourceGraphic"></feGaussianBlur>
            </filter>
        </defs>
        <g id="Group">
            <path d="M25.5638087,15.943662 C27.0036675,13.2133529 24.7621951,11 20.5573399,11 C16.3524848,11 11.77654,13.2133529 10.3366812,15.943662 C8.89682239,18.6739711 11.1382948,20.8873239 15.34315,20.8873239 C19.5480051,20.8873239 24.1239499,18.6739711 25.5638087,15.943662 Z M16.1891015,20.8873239 L7.69190306,37 L6,37 L14.4971984,20.8873239 L16.1891015,20.8873239 Z" id="Oval-4" fill="url(#linearGradient-1)" filter="url(#filter-2)"></path>
            <ellipse id="Oval-3" fill="#000000" cx="7" cy="36" rx="2" ry="1"></ellipse>
            <rect id="Rectangle-1" fill="#AAACAF" x="6" y="13" width="2" height="23"></rect>
            <circle id="Oval-1" fill="#FE3824" cx="7" cy="7" r="7"></circle>
            <circle id="Oval-2" fill="#FFFFFF" cx="5.5" cy="4.5" r="1.5"></circle>
        </g>
    </symbol>
    <symbol id="inf-point">
        <path d="M15.608,37 C14.592,36.528 3.997,33.265 1.191,28.796 C0.823,28.16 0.823,27.524 1.191,26.887 C1.56,26.251 2.256,25.695 3.278,25.22 C4.3,24.745 5.5,24.424 6.877,24.256 C8.254,24.089 9.631,24.089 11.008,24.256 C12.385,24.424 13.584,24.745 14.607,25.22 C15.629,25.695 16.324,26.251 16.693,26.887 C16.693,26.887 18.045,27.829 15.608,37 Z" fill-opacity="0.1" fill="#232323" fill-rule="nonzero"></path>
        <path d="M25.044,24.54 L15.5,37 L5.956,24.54 C4.249,22.71 3.085,20.562 2.465,18.094 C1.845,15.626 1.845,13.158 2.465,10.69 C3.085,8.222 4.254,6.067 5.974,4.225 C7.693,2.384 9.711,1.138 12.026,0.488 C14.342,-0.163 16.658,-0.163 18.974,0.488 C21.289,1.138 23.307,2.384 25.026,4.225 C26.746,6.067 27.915,8.222 28.535,10.69 C29.155,13.158 29.155,15.626 28.535,18.094 C27.915,20.562 26.751,22.71 25.044,24.54 Z"  fill="#FF7676" fill-rule="nonzero"></path>
        <path d="M22.378,12.924 C22.378,12.924 22.861,11.975 23.684,11.975 C24.103,11.975 24.505,12.146 24.801,12.45 C25.097,12.754 25.264,13.167 25.264,13.597 C25.264,14.027 25.097,14.439 24.801,14.743 C24.505,15.047 24.103,15.218 23.684,15.218 C22.871,15.218 22.387,14.295 22.387,14.295 C22.238,14.01 21.323,13.882 21.066,13.926 C20.809,13.97 20.535,14.264 20.46,14.579 L19.669,16.548 C19.502,16.822 19.762,17.617 19.946,17.86 C20.131,18.103 20.506,18.171 20.781,18.011 C20.781,18.011 20.936,17.921 21.298,17.921 C21.558,17.921 21.814,17.987 22.043,18.112 C22.272,18.238 22.467,18.42 22.611,18.641 C22.756,18.863 22.845,19.118 22.87,19.383 C22.895,19.649 22.857,19.916 22.757,20.163 C22.658,20.409 22.501,20.627 22.3,20.796 C22.099,20.965 21.861,21.081 21.606,21.133 C21.352,21.185 21.088,21.171 20.84,21.094 C20.591,21.017 20.365,20.877 20.181,20.689 C19.604,20.096 19.904,19.085 19.904,19.085 C19.996,18.776 19.441,18.018 19.231,17.862 C19.021,17.707 18.628,17.72 18.361,17.892 L16.443,18.703 C16.136,18.782 15.77,19.537 15.732,19.843 C15.693,20.149 15.89,20.523 16.17,20.673 C16.17,20.673 17.095,21.169 17.095,22.014 C17.095,22.444 16.928,22.856 16.632,23.161 C16.336,23.465 15.934,23.635 15.515,23.635 C15.096,23.635 14.695,23.465 14.398,23.161 C14.102,22.856 13.936,22.444 13.936,22.014 C13.936,21.179 14.835,20.682 14.835,20.682 C15.113,20.529 15.238,19.59 15.195,19.326 C15.151,19.062 14.865,18.781 14.559,18.704 L12.641,17.893 C12.373,17.72 11.6,17.987 11.363,18.176 C11.126,18.366 11.011,18.774 11.107,19.083 C11.107,19.083 11.425,20.111 10.841,20.711 C10.657,20.899 10.431,21.038 10.183,21.116 C9.934,21.193 9.671,21.206 9.416,21.154 C9.161,21.102 8.923,20.987 8.722,20.818 C8.521,20.648 8.364,20.431 8.265,20.185 C8.165,19.938 8.127,19.671 8.152,19.405 C8.178,19.14 8.267,18.885 8.411,18.663 C8.555,18.442 8.75,18.26 8.98,18.134 C9.209,18.008 9.464,17.943 9.724,17.943 C10.077,17.943 10.215,18.02 10.215,18.02 C10.492,18.177 11.209,17.658 11.36,17.442 C11.512,17.227 11.499,16.823 11.332,16.548 L10.541,14.58 C10.464,14.265 9.729,13.889 9.431,13.849 C9.133,13.81 8.769,14.012 8.623,14.3 C8.623,14.3 8.139,15.249 7.316,15.249 C6.897,15.249 6.496,15.078 6.199,14.774 C5.903,14.47 5.737,14.057 5.737,13.627 C5.737,13.197 5.903,12.785 6.199,12.481 C6.496,12.177 6.897,12.006 7.316,12.006 C8.129,12.006 8.614,12.929 8.614,12.929 C8.763,13.214 9.677,13.342 9.935,13.298 C10.192,13.254 10.465,12.96 10.541,12.645 L11.331,10.676 C11.499,10.402 11.239,9.607 11.054,9.364 C10.87,9.121 10.494,9.053 10.219,9.213 C10.219,9.213 10.064,9.303 9.702,9.303 C9.443,9.303 9.187,9.237 8.958,9.112 C8.729,8.986 8.533,8.804 8.389,8.583 C8.245,8.361 8.156,8.106 8.13,7.841 C8.105,7.575 8.144,7.308 8.243,7.061 C8.342,6.815 8.499,6.598 8.7,6.428 C8.901,6.259 9.139,6.143 9.394,6.091 C9.649,6.039 9.912,6.053 10.161,6.13 C10.409,6.208 10.635,6.347 10.819,6.535 C11.397,7.128 11.097,8.139 11.097,8.139 C11.005,8.448 11.559,9.206 11.769,9.362 C11.979,9.518 12.372,9.504 12.64,9.332 L14.558,8.521 C14.864,8.442 15.23,7.687 15.269,7.381 C15.307,7.075 15.11,6.702 14.83,6.551 C14.83,6.551 13.906,6.055 13.906,5.21 C13.906,4.78 14.072,4.368 14.368,4.064 C14.665,3.759 15.066,3.589 15.485,3.589 C15.904,3.589 16.306,3.759 16.602,4.064 C16.898,4.368 17.065,4.78 17.065,5.21 C17.065,6.045 16.165,6.542 16.165,6.542 C15.887,6.695 15.763,7.634 15.806,7.898 C15.849,8.162 16.135,8.443 16.442,8.521 L18.359,9.332 C18.627,9.504 19.401,9.237 19.638,9.048 C19.874,8.858 19.99,8.45 19.894,8.141 C19.894,8.141 19.575,7.113 20.16,6.513 C20.343,6.325 20.569,6.186 20.818,6.108 C21.066,6.031 21.33,6.018 21.584,6.07 C21.839,6.122 22.078,6.237 22.278,6.407 C22.479,6.576 22.636,6.793 22.736,7.039 C22.835,7.286 22.874,7.554 22.848,7.819 C22.823,8.084 22.734,8.339 22.59,8.561 C22.445,8.783 22.25,8.964 22.021,9.09 C21.792,9.216 21.536,9.281 21.276,9.281 C20.924,9.281 20.785,9.204 20.785,9.204 C20.508,9.047 19.792,9.566 19.64,9.782 C19.488,9.998 19.501,10.401 19.669,10.676 L20.459,12.644 C20.536,12.959 21.272,13.335 21.57,13.375 C21.868,13.414 22.231,13.212 22.378,12.924 Z M17.257,16.698 L18.597,15.322 L16.929,13.61 L18.592,11.902 L17.252,10.526 L15.589,12.234 L13.744,10.34 L12.404,11.716 L14.249,13.61 L12.399,15.509 L13.739,16.885 L15.589,14.986 L17.257,16.698 Z" fill="#FEFEFE"></path>
    </symbol>

    <g id="map" x="0" y="0">
        <polyline fill="none" stroke-opacity="0.5" stroke="#007AFF" stroke-width="5" points="513.5 438 453.5 459.5 400 396 395.5 386.5 382 386.5 297.5 459.5 274.5 445 304.5 417 272 383 272 351"></polyline>
        <polyline fill="none" stroke-opacity="0.5" stroke="#007AFF" stroke-width="5" points="646.5 342 620.5 280 605 261.5 710.5 187 737 173 777 169.5 777 232.5 827 232.5 834 249.5"></polyline>
        <polyline fill="none" stroke-opacity="0.5" stroke="#007AFF" stroke-width="5" points="516.5 37 463 73 489.75 109 411.5 169 402.5 178.5 406.5 195 385.5 216.5 284.5 271 268.5 299 268.5 337.5"></polyline>
        <circle  stroke="#FFCCCC" fill-opacity="0.2" fill="#FF8A8A" fill-rule="nonzero" cx="268.5" cy="331.5" r="46.5"></circle>
        <use xlink:href="#apple-point" x="639" y="305" />
        <use xlink:href="#apple-point" x="827" y="213" />
        <use xlink:href="#apple-point" x="507" y="403" />
        <use xlink:href="#apple-point" x="508" y="4" />
        <use xlink:href="#inf-point" x="253" y="302" />
        <use xlink:href="#inf-point" x="283" y="425" />
        <use xlink:href="#inf-point" x="643" y="37" />
        <use xlink:href="#inf-point" x="258" y="321" />
    </g>
</svg>