<svg width="135" height="40" viewBox="0 0 135 40" xmlns="http://www.w3.org/2000/svg"><title>play_market_en</title><desc>Created with Sketch.</desc><defs><linearGradient x1="61.034%" y1="4.948%" x2="26.503%" y2="71.907%" id="a"><stop stop-color="#00A0FF" offset="0%"/><stop stop-color="#00A1FF" offset="1%"/><stop stop-color="#00BEFF" offset="26%"/><stop stop-color="#00D2FF" offset="51%"/><stop stop-color="#00DFFF" offset="76%"/><stop stop-color="#00E3FF" offset="100%"/></linearGradient><linearGradient x1="107.685%" y1="50%" x2="-130.64%" y2="50%" id="b"><stop stop-color="#FFE000" offset="0%"/><stop stop-color="#FFBD00" offset="41%"/><stop stop-color="#FFA500" offset="78%"/><stop stop-color="#FF9C00" offset="100%"/></linearGradient><linearGradient x1="86.219%" y1="30.911%" x2="-50.15%" y2="135.988%" id="c"><stop stop-color="#FF3A44" offset="0%"/><stop stop-color="#C31162" offset="100%"/></linearGradient><linearGradient x1="-18.754%" y1="-11.832%" x2="42.121%" y2="35.095%" id="d"><stop stop-color="#32A071" offset="0%"/><stop stop-color="#2DA771" offset="7%"/><stop stop-color="#15CF74" offset="48%"/><stop stop-color="#06E775" offset="80%"/><stop stop-color="#00F076" offset="100%"/></linearGradient></defs><g transform="translate(-10 -10)" fill="none"><path id="Path" d="M0 0h155v60h-155z"/><rect fill="#000" x="10" y="10" width="135" height="40" rx="5"/><path d="M57.42 20.24c.034.741-.237 1.464-.75 2-.574.596-1.374.919-2.2.89-1.268-.01-2.406-.779-2.888-1.951-.482-1.172-.215-2.52.678-3.419.581-.593 1.381-.918 2.21-.9.423-.001.841.084 1.23.25.362.146.684.376.94.67l-.53.53c-.405-.481-1.012-.744-1.64-.71-.631-.003-1.236.251-1.676.704-.44.453-.676 1.065-.654 1.696-.013.953.548 1.821 1.423 2.199.875.378 1.892.193 2.577-.469.308-.333.485-.766.5-1.22h-2.17v-.72h2.91c.027.149.04.299.04.45zm4.58-2.5h-2.7v1.9h2.46v.72h-2.46v1.9h2.7v.74h-3.5v-6h3.5v.74zm3.28 5.26h-.77v-5.26h-1.68v-.74h4.17v.74h-1.72v5.26zm4.66 0v-6h.77v6h-.77zm4.19 0h-.77v-5.26h-1.68v-.74h4.12v.74h-1.67v5.26zm9.48-.78c-1.217 1.21-3.183 1.21-4.4 0-1.18-1.249-1.18-3.201 0-4.45.582-.586 1.374-.916 2.2-.916.826 0 1.618.33 2.2.916 1.185 1.247 1.185 3.203 0 4.45zm-3.83-.5c.901.898 2.359.898 3.26 0 .885-.976.885-2.464 0-3.44-.901-.898-2.359-.898-3.26 0-.885.976-.885 2.464 0 3.44zm5.8 1.28v-6h.94l2.92 4.67v-4.67h.77v6h-.8l-3.05-4.89v4.89h-.78z" id="Shape" stroke="#fff" stroke-width=".2" fill="#fff" fill-rule="nonzero"/><path d="M78.14 31.75c-2.345.011-4.237 1.919-4.23 4.263.007 2.345 1.912 4.24 4.257 4.237 2.345-.004 4.243-1.905 4.243-4.25.016-1.136-.429-2.229-1.234-3.03-.805-.801-1.901-1.241-3.036-1.22zm0 6.83c-1.057.074-2.051-.506-2.508-1.462-.457-.956-.283-2.094.439-2.869.722-.776 1.844-1.031 2.83-.645.986.386 1.636 1.337 1.639 2.396.033.663-.204 1.31-.656 1.796-.452.486-1.081.768-1.744.784zm-9.31-6.83c-2.346.006-4.244 1.911-4.24 4.257.004 2.346 1.907 4.245 4.253 4.243 2.346-.002 4.247-1.904 4.247-4.25.016-1.136-.429-2.229-1.234-3.03-.805-.801-1.901-1.241-3.036-1.22h.01zm0 6.83c-1.057.078-2.055-.499-2.515-1.454-.46-.955-.289-2.095.432-2.872.72-.778 1.843-1.036 2.831-.65s1.639 1.336 1.642 2.396c.033.663-.204 1.31-.656 1.796-.452.486-1.081.768-1.744.784h.01zm-11.09-5.52v1.8h4.32c-.068.848-.42 1.648-1 2.27-.874.89-2.083 1.37-3.33 1.32-2.651 0-4.8-2.149-4.8-4.8s2.149-4.8 4.8-4.8c1.218-.02 2.394.444 3.27 1.29l1.27-1.27c-1.195-1.21-2.829-1.885-4.53-1.87-2.421-.094-4.7 1.144-5.938 3.226-1.239 2.082-1.239 4.676 0 6.758s3.517 3.32 5.938 3.226c1.732.078 3.413-.596 4.61-1.85 1.048-1.151 1.607-2.664 1.56-4.22.003-.379-.03-.757-.1-1.13l-6.07.05zm45.31 1.4c-.534-1.571-1.982-2.649-3.64-2.71-1.106-.002-2.163.453-2.921 1.259-.758.805-1.148 1.888-1.079 2.991-.025 1.129.411 2.22 1.207 3.022.796.802 1.884 1.245 3.013 1.228 1.421.008 2.751-.699 3.54-1.88l-1.45-1c-.44.734-1.234 1.182-2.09 1.18-.886.034-1.703-.478-2.06-1.29l5.69-2.35-.21-.45zm-5.8 1.42c-.041-.625.171-1.24.589-1.706.418-.467 1.005-.745 1.631-.774.659-.043 1.281.311 1.58.9l-3.8 1.58zm-4.62 4.12h1.87v-12.5h-1.87v12.5zm-3.06-7.3h-.07c-.57-.637-1.385-1.001-2.24-1-2.27.11-4.054 1.982-4.054 4.255 0 2.273 1.784 4.145 4.054 4.255.858.014 1.678-.352 2.24-1h.06v.61c0 1.63-.87 2.5-2.27 2.5-.954-.022-1.799-.619-2.14-1.51l-1.63.68c.628 1.527 2.119 2.52 3.77 2.51 2.19 0 4-1.29 4-4.43v-7.57h-1.72v.7zm-2.14 5.88c-1.337-.118-2.363-1.238-2.363-2.58s1.026-2.462 2.363-2.58c.646.033 1.251.326 1.679.811.427.486.641 1.123.591 1.769.055.648-.157 1.29-.588 1.778-.431.487-1.042.777-1.692.802h.01zm24.38-11.08h-4.47v12.5h1.87v-4.74h2.61c1.453.104 2.842-.611 3.6-1.855s.758-2.806 0-4.05c-.758-1.244-2.147-1.959-3.6-1.855h-.01zm0 6h-2.61v-4.26h2.65c1.185 0 2.145.96 2.145 2.145s-.96 2.145-2.145 2.145l-.04-.03zm11.53-1.8c-1.391-.083-2.699.667-3.33 1.91l1.66.69c.334-.616 1.001-.977 1.7-.92.48-.056.961.083 1.338.386.376.303.615.744.662 1.224v.13c-.601-.318-1.27-.483-1.95-.48-1.79 0-3.6 1-3.6 2.81.036.78.385 1.512.969 2.03.584.518 1.352.778 2.131.72.959.069 1.88-.391 2.4-1.2h.06v1h1.8v-4.81c0-2.19-1.66-3.46-3.79-3.46l-.05-.03zm-.23 6.85c-.61 0-1.46-.31-1.46-1.06 0-1 1.06-1.33 2-1.33.594-.015 1.181.13 1.7.42-.129 1.119-1.063 1.973-2.19 2l-.05-.03zm10.63-6.55l-2.14 5.42h-.06l-2.22-5.42h-2l3.33 7.58-1.9 4.21h1.95l5.12-11.79h-2.08zm-16.81 8h1.87v-12.5h-1.87v12.5z" id="Shape" fill="#fff" fill-rule="nonzero"/><path d="M20.44 17.54c-.326.391-.49.892-.46 1.4v22.12c-.03.508.134 1.009.46 1.4l.07.07 12.39-12.38v-.29l-12.39-12.39-.07.07z" id="Path" fill="url(#a)"/><path d="M37 34.28l-4.1-4.13v-.29l4.1-4.14.09.05 4.91 2.79c1.4.79 1.4 2.09 0 2.89l-4.89 2.78-.11.05z" id="Path" fill="url(#b)"/><path d="M37.12 34.22l-4.22-4.22-12.46 12.46c.589.518 1.462.543 2.08.06l14.61-8.3" id="Path" fill="url(#c)"/><path d="M37.12 25.78l-14.61-8.3c-.618-.483-1.491-.458-2.08.06l12.47 12.46 4.22-4.22z" id="Path" fill="url(#d)"/><path d="M37 34.13l-14.49 8.25c-.593.443-1.407.443-2 0l-.07.07.07.07c.592.447 1.408.447 2 0l14.61-8.3-.12-.09z" id="Path" fill="#000" opacity=".2"/><path d="M20.44 42.32c-.326-.391-.49-.892-.46-1.4v.15c-.03.508.134 1.009.46 1.4l.07-.07-.07-.08zm21.56-11.02l-5 2.83.09.09 4.91-2.78c.567-.266.948-.816 1-1.44-.114.565-.483 1.045-1 1.3z" fill="#000" fill-rule="nonzero" opacity=".12"/><path d="M22.51 17.62l19.49 11.08c.517.255.886.735 1 1.3-.052-.624-.433-1.174-1-1.44l-19.49-11.08c-1.4-.79-2.54-.13-2.54 1.47v.15c.03-1.61 1.15-2.27 2.54-1.48z" fill="#fff" opacity=".25"/></g></svg>