<svg  viewBox="0 0 112 112" fill="none" xmlns="http://www.w3.org/2000/svg">
<path fill-rule="evenodd" clip-rule="evenodd" d="M95.4485 52.1582C95.4485 52.1582 98.2205 46.8562 102.941 46.8562C105.344 46.8562 107.648 47.8107 109.347 49.5095C111.046 51.2085 112 53.5126 112 55.9152C112 58.3178 111.046 60.6219 109.347 62.3208C107.648 64.0196 105.344 64.9741 102.941 64.9741C98.2765 64.9741 95.4995 59.8155 95.4995 59.8155C94.6447 58.2211 89.3987 57.5079 87.9229 57.755C86.4472 58.002 84.8808 59.6425 84.4459 61.4016L79.9132 72.4008C78.9513 73.9359 80.4435 78.3748 81.501 79.732C82.5584 81.0892 84.7144 81.4697 86.2907 80.5769C86.2907 80.5769 87.1801 80.0729 89.2554 80.0729C90.7452 80.0729 92.2119 80.4402 93.5258 81.1426C94.8397 81.8447 95.9602 82.8601 96.7879 84.0989C97.6155 85.3375 98.125 86.7612 98.2711 88.2438C98.417 89.7265 98.1953 91.2222 97.6251 92.5985C97.055 93.975 96.1542 95.1895 95.0026 96.1346C93.851 97.0797 92.484 97.7262 91.0229 98.0168C89.5618 98.3075 88.0516 98.2332 86.6259 97.8007C85.2003 97.3683 83.9034 96.5909 82.8499 95.5374C79.5376 92.2251 81.2572 86.5789 81.2572 86.5789C81.7843 84.8528 78.6037 80.6181 77.3997 79.7468C76.1957 78.8755 73.9425 78.9496 72.4074 79.9115L61.4065 84.4426C59.6491 84.8841 57.5474 89.1039 57.3267 90.8136C57.106 92.5232 58.2376 94.6084 59.8435 95.4485C59.8435 95.4485 65.1454 98.2205 65.1454 102.941C65.1454 105.344 64.1909 107.648 62.4921 109.347C60.7932 111.046 58.4891 112 56.0865 112C53.6839 112 51.3798 111.046 49.6808 109.347C47.982 107.648 47.0275 105.344 47.0275 102.941C47.0275 98.2765 52.1845 95.4995 52.1845 95.4995C53.7805 94.6447 54.4937 89.3987 54.2467 87.9229C53.9996 86.4472 52.3591 84.8808 50.6 84.4459L39.6008 79.9148C38.0657 78.9513 33.6268 80.4419 32.2696 81.501C30.9125 82.56 30.2503 84.838 30.8005 86.5641C30.8005 86.5641 32.6271 92.3075 29.2753 95.6593C28.2218 96.7128 26.9249 97.4902 25.4993 97.9225C24.0736 98.3551 22.5634 98.4294 21.1023 98.1386C19.6411 97.8481 18.2742 97.2016 17.1226 96.2565C15.9709 95.3114 15.0702 94.0969 14.5001 92.7204C13.93 91.3441 13.7081 89.8484 13.8541 88.3657C14.0002 86.8831 14.5096 85.4594 15.3373 84.2208C16.165 82.982 17.2855 81.9666 18.5994 81.2644C19.9132 80.5621 21.38 80.1948 22.8697 80.1948C24.8924 80.1948 25.6863 80.6297 25.6863 80.6297C27.274 81.5026 31.3852 78.6021 32.2548 77.3981C33.1245 76.1941 33.052 73.9408 32.0901 72.4058L27.5573 61.4065C27.1159 59.6475 22.8961 57.5458 21.1864 57.3251C19.4768 57.1044 17.3916 58.2359 16.5515 59.8418C16.5515 59.8418 13.7795 65.1438 9.05896 65.1438C6.65637 65.1438 4.35219 64.1893 2.6533 62.4905C0.954422 60.7915 0 58.4874 0 56.0848C0 53.6822 0.954422 51.3781 2.6533 49.6792C4.35219 47.9804 6.65637 47.0259 9.05896 47.0259C13.7235 47.0259 16.5005 52.1845 16.5005 52.1845C17.3553 53.7789 22.6013 54.4921 24.0771 54.245C25.5528 53.998 27.1192 52.3575 27.5541 50.5984L32.0868 39.5992C33.0487 38.0641 31.5565 33.6252 30.499 32.268C29.4416 30.9108 27.2856 30.5303 25.7093 31.423C25.7093 31.423 24.8199 31.9271 22.7446 31.9271C21.2548 31.9271 19.7881 31.5598 18.4742 30.8574C17.1603 30.1553 16.0398 29.1399 15.2121 27.9011C14.3844 26.6625 13.875 25.2387 13.729 23.7562C13.5829 22.2735 13.8048 20.7778 14.3749 19.4015C14.945 18.025 15.8457 16.8105 16.9974 15.8654C18.149 14.9203 19.516 14.2738 20.9771 13.9832C22.4382 13.6926 23.9484 13.7668 25.3741 14.1993C26.7997 14.6317 28.0966 15.4091 29.1501 16.4626C32.4624 19.7749 30.7428 25.4211 30.7428 25.4211C30.2141 27.1472 33.3963 31.3819 34.6003 32.2532C35.8043 33.1245 38.0575 33.0504 39.5926 32.0885L50.5935 27.5573C52.3509 27.1159 54.4526 22.8961 54.6733 21.1864C54.894 19.4768 53.7624 17.3916 52.1565 16.5515C52.1565 16.5515 46.8546 13.7795 46.8546 9.05896C46.8546 6.65637 47.8091 4.35219 49.5079 2.6533C51.2068 0.954423 53.5109 0 55.9135 0C58.3161 0 60.6202 0.954423 62.3192 2.6533C64.018 4.35219 64.9725 6.65637 64.9725 9.05896C64.9725 13.7235 59.8155 16.5005 59.8155 16.5005C58.2194 17.3553 57.5063 22.6013 57.7533 24.0771C58.0004 25.5528 59.6409 27.1192 61.4 27.5541L72.3992 32.0852C73.9343 33.0487 78.3732 31.5581 79.7303 30.499C81.0875 29.44 81.7497 27.162 81.1995 25.4359C81.1995 25.4359 79.3729 19.6925 82.7247 16.3407C83.7782 15.2873 85.0751 14.5099 86.5007 14.0774C87.9264 13.6449 89.4366 13.5707 90.8977 13.8613C92.3589 14.1519 93.7258 14.7984 94.8774 15.7435C96.0291 16.6886 96.9298 17.9031 97.4999 19.2796C98.0701 20.6559 98.2918 22.1516 98.1459 23.6343C97.9998 25.1169 97.4903 26.5406 96.6627 27.7792C95.835 29.018 94.7145 30.0334 93.4007 30.7356C92.0868 31.4379 90.62 31.8052 89.1302 31.8052C87.1076 31.8052 86.3137 31.3703 86.3137 31.3703C84.7259 30.4974 80.6148 33.3979 79.7452 34.6019C78.8755 35.8059 78.948 38.0591 79.9099 39.5942L84.4426 50.5935C84.8841 52.3525 89.1039 54.4542 90.8136 54.6749C92.5232 54.8956 94.6084 53.7641 95.4485 52.1582Z" fill="#ff7575"/>
</svg>
