<svg width="1334" height="456" viewBox="0 0 1334 456" fill="none" xmlns="http://www.w3.org/2000/svg">
<circle cx="571" cy="293" r="8.39378" fill="white" fill-opacity="0.2"/>
<circle cx="571" cy="293" r="11" stroke="white" stroke-opacity="0.2" stroke-width="2"/>
<circle cx="464" cy="66" r="21.6839" fill="white" fill-opacity="0.2"/>
<circle cx="464" cy="66" r="30" stroke="white" stroke-opacity="0.2" stroke-width="2"/>
<circle cx="801" cy="183" r="21.6839" fill="white" fill-opacity="0.2"/>
<circle cx="801" cy="183" r="30" stroke="white" stroke-opacity="0.2" stroke-width="2"/>
<circle cx="796" cy="75" r="21.6839" fill="white" fill-opacity="0.2"/>
<circle cx="796" cy="75" r="30" stroke="white" stroke-opacity="0.2" stroke-width="2"/>
<circle cx="1133" cy="192" r="21.6839" fill="white" fill-opacity="0.2"/>
<circle cx="1133" cy="192" r="30" stroke="white" stroke-opacity="0.2" stroke-width="2"/>
<circle cx="442" cy="308" r="21.6839" fill="white" fill-opacity="0.2"/>
<circle cx="442" cy="308" r="30" stroke="white" stroke-opacity="0.2" stroke-width="2"/>
<circle cx="69.9999" cy="170" r="21.6839" fill="white" fill-opacity="0.2"/>
<circle cx="70" cy="170" r="30" stroke="white" stroke-opacity="0.2" stroke-width="2"/>
<circle cx="1182" cy="331" r="21.6839" fill="white" fill-opacity="0.2"/>
<circle cx="1182" cy="331" r="30" stroke="white" stroke-opacity="0.2" stroke-width="2"/>
<circle cx="779" cy="425" r="21.6839" fill="white" fill-opacity="0.2"/>
<circle cx="779" cy="425" r="30" stroke="white" stroke-opacity="0.2" stroke-width="2"/>
<circle cx="289" cy="31" r="21.6839" fill="white" fill-opacity="0.2"/>
<circle cx="289" cy="31" r="30" stroke="white" stroke-opacity="0.2" stroke-width="2"/>
<circle cx="626" cy="148" r="21.6839" fill="white" fill-opacity="0.2"/>
<circle cx="626" cy="148" r="30" stroke="white" stroke-opacity="0.2" stroke-width="2"/>
<circle cx="703" cy="278" r="15.3886" fill="white" fill-opacity="0.2"/>
<circle cx="703" cy="278" r="21" stroke="white" stroke-opacity="0.2" stroke-width="2"/>
<circle cx="1040" cy="395" r="15.3886" fill="white" fill-opacity="0.2"/>
<circle cx="1040" cy="395" r="21" stroke="white" stroke-opacity="0.2" stroke-width="2"/>
<circle cx="1312" cy="153" r="15.3886" fill="white" fill-opacity="0.2"/>
<circle cx="1312" cy="153" r="21" stroke="white" stroke-opacity="0.2" stroke-width="2"/>
<circle cx="21.9999" cy="320" r="15.3886" fill="white" fill-opacity="0.2"/>
<circle cx="22" cy="320" r="21" stroke="white" stroke-opacity="0.2" stroke-width="2"/>
<circle cx="522" cy="171" r="15.3886" fill="white" fill-opacity="0.2"/>
<circle cx="522" cy="171" r="21" stroke="white" stroke-opacity="0.2" stroke-width="2"/>
<circle cx="320" cy="372" r="15.3886" fill="white" fill-opacity="0.2"/>
<circle cx="320" cy="372" r="21" stroke="white" stroke-opacity="0.2" stroke-width="2"/>
<circle cx="643" cy="48" r="15.3886" fill="white" fill-opacity="0.2"/>
<circle cx="643" cy="48" r="21" stroke="white" stroke-opacity="0.2" stroke-width="2"/>
<circle cx="859" cy="288" r="15.3886" fill="white" fill-opacity="0.2"/>
<circle cx="859" cy="288" r="21" stroke="white" stroke-opacity="0.2" stroke-width="2"/>
<path d="M286.5 61.5L276 163" stroke="white" stroke-opacity="0.2" stroke-width="2"/>
<path d="M205 208L98 181" stroke="white" stroke-opacity="0.2" stroke-width="2"/>
<path d="M24 298.5L59 198" stroke="white" stroke-opacity="0.2" stroke-width="2"/>
<path d="M442 87.5L311.5 189" stroke="white" stroke-opacity="0.2" stroke-width="2"/>
<path d="M508 187L450.5 278.5" stroke="white" stroke-opacity="0.2" stroke-width="2"/>
<path d="M413.5 320L334 353" stroke="white" stroke-opacity="0.2" stroke-width="2"/>
<path d="M414 292.5L317 232" stroke="white" stroke-opacity="0.2" stroke-width="2"/>
<path d="M765.5 397L721 290" stroke="white" stroke-opacity="0.2" stroke-width="2"/>
<path d="M280.5 274L313 351" stroke="white" stroke-opacity="0.2" stroke-width="2"/>
<path d="M433 63L312.5 50.5" stroke="white" stroke-opacity="0.2" stroke-width="2"/>
<path d="M1302 173.5L1199.5 305.5" stroke="white" stroke-opacity="0.2" stroke-width="2"/>
<path d="M1158.5 351L1061 392" stroke="white" stroke-opacity="0.2" stroke-width="2"/>
<path d="M598 135L495.5 70.5" stroke="white" stroke-opacity="0.2" stroke-width="2"/>
<path d="M832 175L970 114" stroke="white" stroke-opacity="0.2" stroke-width="2"/>
<path d="M653.5 132.5L767 81.5" stroke="white" stroke-opacity="0.2" stroke-width="2"/>
<path d="M543.5 167.5L595.5 156" stroke="white" stroke-opacity="0.2" stroke-width="2"/>
<path d="M647 170L695 258.5" stroke="white" stroke-opacity="0.2" stroke-width="2"/>
<path d="M815.5 209L849 270" stroke="white" stroke-opacity="0.2" stroke-width="2"/>
<path d="M878.5 279.5L982 136.5" stroke="white" stroke-opacity="0.2" stroke-width="2"/>
<path d="M807 414L1019 395.5" stroke="white" stroke-opacity="0.2" stroke-width="2"/>
<path d="M880.5 289L1025.5 380" stroke="white" stroke-opacity="0.2" stroke-width="2"/>
<rect x="1073" y="127.356" width="2" height="58.0686" transform="rotate(-42.6686 1073 127.356)" fill="white" fill-opacity="0.2"/>
</svg>
