<?xml version="1.0" standalone="no"?>
<!DOCTYPE svg PUBLIC "-//W3C//DTD SVG 20010904//EN"
 "http://www.w3.org/TR/2001/REC-SVG-20010904/DTD/svg10.dtd">
<svg version="1.0" xmlns="http://www.w3.org/2000/svg"
 width="700.000000pt" height="700.000000pt" viewBox="0 0 700.000000 700.000000"
 preserveAspectRatio="xMidYMid meet">
<metadata>
Created by potrace 1.11, written by Peter Selinger 2001-2013
</metadata>
<g transform="translate(0.000000,700.000000) scale(0.100000,-0.100000)"
fill="#000000" stroke="none">
<path d="M3353 6981 c-86 -24 -142 -51 -206 -101 -107 -86 -185 -214 -208
-345 -29 -167 17 -303 145 -430 82 -81 97 -93 160 -130 97 -57 160 -148 172
-249 8 -64 -25 -163 -96 -286 -73 -125 -85 -133 -433 -275 -172 -71 -350 -145
-397 -166 -100 -45 -174 -58 -250 -46 -48 8 -61 16 -115 71 -96 96 -188 245
-201 324 -3 22 -1 64 6 93 18 79 20 246 5 314 -29 123 -86 206 -192 279 -341
232 -805 40 -879 -364 -6 -36 -7 -173 -1 -200 23 -100 61 -182 115 -250 47
-58 80 -87 155 -133 150 -92 325 -106 506 -39 121 44 243 -4 301 -118 30 -58
71 -187 76 -239 3 -25 7 -51 9 -57 5 -18 -13 -102 -34 -146 -10 -24 -40 -95
-66 -158 -26 -63 -53 -128 -60 -145 -7 -16 -45 -109 -84 -205 -89 -220 -103
-248 -148 -294 -57 -58 -100 -76 -185 -76 -127 0 -292 37 -366 82 -18 11 -53
51 -78 88 -64 97 -166 190 -260 236 -77 38 -80 39 -189 38 -95 0 -120 -4 -180
-28 -174 -68 -285 -182 -347 -359 -31 -88 -32 -244 -1 -342 53 -168 191 -308
361 -367 53 -18 89 -23 173 -23 102 0 107 1 185 39 98 49 197 144 278 268 41
64 70 95 108 121 63 41 141 62 199 52 85 -15 241 -90 308 -150 62 -55 70 -67
115 -179 60 -148 186 -453 248 -600 42 -101 50 -127 49 -181 0 -34 -7 -81 -16
-103 -26 -65 -137 -156 -260 -214 -84 -39 -121 -44 -182 -23 -61 22 -200 26
-281 9 -377 -79 -565 -509 -367 -841 182 -306 590 -368 863 -132 66 58 124
166 140 263 11 72 3 219 -17 300 -25 105 -20 173 19 253 41 83 103 126 250
173 162 52 197 47 445 -55 116 -47 282 -115 370 -151 262 -106 308 -135 357
-229 27 -51 26 -147 -3 -289 -29 -144 -60 -201 -134 -250 -33 -22 -94 -73
-136 -115 -139 -139 -184 -279 -145 -453 61 -273 297 -455 576 -444 316 14
560 283 537 593 -12 155 -118 302 -307 426 -157 102 -209 223 -159 368 41 119
122 252 183 300 14 11 90 47 169 79 204 83 220 90 242 100 11 5 88 36 170 70
83 33 162 67 176 75 79 44 230 47 288 6 44 -31 114 -114 165 -195 78 -121 97
-191 76 -273 -18 -70 -21 -248 -4 -312 33 -127 93 -212 199 -281 252 -164 577
-111 761 125 34 43 99 165 88 165 -4 0 -2 6 4 12 10 13 24 102 26 163 2 47
-13 135 -31 190 -18 52 -85 164 -121 201 -168 175 -403 222 -646 131 -51 -19
-127 -13 -184 15 -68 35 -119 120 -162 273 -29 105 -30 188 -2 248 12 26 22
51 22 55 0 5 6 22 14 38 8 16 67 157 131 314 147 362 147 361 197 417 78 85
162 101 343 69 165 -30 229 -62 282 -145 49 -76 176 -200 242 -235 106 -56
209 -69 331 -40 250 58 429 275 435 527 7 237 -111 431 -321 532 -206 98 -407
64 -567 -97 -82 -83 -90 -93 -136 -168 -94 -153 -243 -203 -401 -136 -98 42
-190 99 -237 146 -33 33 -53 72 -99 184 -31 77 -65 159 -75 181 -10 22 -43
103 -74 180 -31 77 -68 165 -82 195 -43 93 -54 133 -54 196 0 115 50 184 206
278 122 74 185 89 253 60 59 -25 212 -27 301 -3 215 55 387 240 418 447 38
259 -76 487 -302 605 -166 87 -389 77 -552 -24 -152 -94 -227 -233 -227 -419
1 -80 11 -168 27 -226 34 -121 -11 -265 -100 -326 -81 -55 -250 -109 -346
-110 -56 -1 -82 7 -267 84 -113 47 -279 115 -370 152 -229 93 -244 100 -296
148 -66 60 -86 106 -85 190 1 126 39 292 83 366 11 18 50 53 87 77 117 78 195
167 249 283 23 50 26 70 26 162 1 105 -6 140 -47 230 -66 148 -203 266 -362
310 -76 21 -214 21 -292 1z m-153 -2666 c178 -179 328 -325 333 -325 5 0 140
132 302 294 l293 294 240 -242 241 -241 -298 -297 -298 -296 298 -299 299
-298 -237 -238 c-130 -130 -241 -236 -246 -234 -5 1 -140 134 -301 295 l-293
293 -332 -332 -333 -332 -239 240 -240 240 332 332 332 332 -332 332 -331 331
238 238 c130 130 239 237 242 238 3 0 151 -146 330 -325z"/>
</g>
</svg>
